<?xml version="1.0" encoding="utf-8"?>
<!-- Generator: Adobe Illustrator 23.0.6, SVG Export Plug-In . SVG Version: 6.00 Build 0)  -->
<svg version="1.1" id="Layer_1" xmlns="http://www.w3.org/2000/svg" xmlns:xlink="http://www.w3.org/1999/xlink" x="0px" y="0px"
	 viewBox="0 0 24 24" style="enable-background:new 0 0 24 24;" xml:space="preserve">
<style type="text/css">
	.st0{fill:#71ABFF;}
</style>
<g>
	<path class="st0" d="M24,11.06c0,0.07-0.04,0.18-0.08,0.24l-0.47,0.58c-0.06,0.08-0.19,0.14-0.29,0.14c-0.07,0-0.18-0.04-0.24-0.08
		L21,10.37v11.39c0,0.41-0.34,0.75-0.75,0.75l-6,0.02c-0.41,0-0.75-0.34-0.75-0.75v-6l-3-0.01v6c0,0.41-0.34,0.75-0.75,0.75h-6
		C3.33,22.51,3,22.17,3,21.76V10.37l-1.92,1.57c-0.06,0.05-0.16,0.08-0.23,0.08c-0.1,0-0.23-0.06-0.29-0.14l-0.47-0.58
		C0.04,11.24,0,11.13,0,11.06c0-0.1,0.06-0.23,0.14-0.29l10.91-8.91c0.23-0.18,0.65-0.33,0.95-0.33c0.29,0,0.72,0.15,0.95,0.33
		l6.55,5.35V4.8c0-0.16,0.13-0.28,0.28-0.28h0.94C20.87,4.52,21,4.65,21,4.8v3.63l2.86,2.34C23.94,10.83,24,10.96,24,11.06z
		 M19.5,9.14L12,3.02L4.5,9.14v11.87H9v-6.01c0-0.41,0.34-0.75,0.75-0.75h0l4.5,0.01c0.41,0,0.75,0.34,0.75,0.75v6.01l4.5-0.01h0
		L19.5,9.14z"/>
</g>
</svg>
