<?xml version="1.0" encoding="utf-8"?>
<!-- Generator: Adobe Illustrator 23.0.6, SVG Export Plug-In . SVG Version: 6.00 Build 0)  -->
<svg version="1.1" id="Layer_1" xmlns="http://www.w3.org/2000/svg" xmlns:xlink="http://www.w3.org/1999/xlink" x="0px" y="0px"
	 viewBox="0 0 32 32" style="enable-background:new 0 0 32 32;" xml:space="preserve">
<style type="text/css">
	.st0{fill:#407BFE;}
	.st1{fill:#71ABFF;}
</style>
<g>
	<path class="st0" d="M16,8.22c-2.27,0-4.11-1.84-4.11-4.11S13.73,0,16,0c2.27,0,4.11,1.84,4.11,4.11S18.27,8.22,16,8.22z"/>
	<path class="st1" d="M16.61,32h-1.23c-1.55,0-2.84-1.11-3.07-2.64c-0.12-0.79-0.26-2.11-0.4-3.5c-0.15-1.4-0.3-2.85-0.43-3.7
		c-0.01-0.08-0.04-0.13-0.05-0.14c-1.58-0.87-1.9-3.87-1.88-8.09l0-0.37c0-2.61,3.24-3.98,6.43-3.98s6.43,1.37,6.43,3.98l0,0.37
		c0.02,4.22-0.3,7.22-1.9,8.11c0.02-0.01-0.01,0.04-0.02,0.12c-0.13,0.85-0.28,2.3-0.43,3.7c-0.15,1.39-0.29,2.71-0.4,3.5
		C19.45,30.89,18.16,32,16.61,32z"/>
</g>
</svg>
