<?xml version="1.0" encoding="utf-8"?>
<!-- Generator: Adobe Illustrator 23.0.6, SVG Export Plug-In . SVG Version: 6.00 Build 0)  -->
<svg version="1.1" id="Layer_1" xmlns="http://www.w3.org/2000/svg" xmlns:xlink="http://www.w3.org/1999/xlink" x="0px" y="0px"
	 viewBox="0 0 30 30" style="enable-background:new 0 0 30 30;" xml:space="preserve">
<style type="text/css">
	.st0{fill:#D9E4ED;}
</style>
<path class="st0" d="M15,30C6.75,30,0,23.24,0,15C0,6.75,6.75,0,15,0c8.25,0,15,6.75,15,15C30,23.24,23.24,30,15,30z M17.69,22.13
	c0.68-0.67,0.62-1.7-0.01-2.29L12.53,15l5.15-4.81c0.67-0.62,0.64-1.67-0.03-2.31c-0.59-0.58-1.58-0.59-2.23,0.03l-5.59,5.25
	c-1.05,0.98-1.05,2.72,0,3.7l5.59,5.25C16.01,22.66,17.14,22.68,17.69,22.13z"/>
</svg>
