<?xml version="1.0" encoding="utf-8"?>
<!-- Generator: Adobe Illustrator 23.0.6, SVG Export Plug-In . SVG Version: 6.00 Build 0)  -->
<svg version="1.1" id="Layer_1" xmlns="http://www.w3.org/2000/svg" xmlns:xlink="http://www.w3.org/1999/xlink" x="0px" y="0px"
	 viewBox="0 0 30 30" style="enable-background:new 0 0 30 30;" xml:space="preserve">
<style type="text/css">
	.st0{fill:#D9E4ED;}
</style>
<path class="st0" d="M0,15C0,6.75,6.75,0,15,0s15,6.75,15,15c0,8.24-6.75,15-15,15C6.76,30,0,23.24,0,15z M14.59,22.12l5.59-5.25
	c1.05-0.98,1.05-2.72,0-3.7l-5.59-5.25c-0.65-0.62-1.64-0.61-2.23-0.03c-0.67,0.64-0.7,1.69-0.03,2.31L17.47,15l-5.15,4.84
	c-0.64,0.59-0.7,1.63-0.01,2.29C12.86,22.68,13.99,22.66,14.59,22.12z"/>
</svg>
