<?xml version="1.0" encoding="utf-8"?>
<!-- Generator: Adobe Illustrator 23.0.6, SVG Export Plug-In . SVG Version: 6.00 Build 0)  -->
<svg version="1.1" id="Layer_1" xmlns="http://www.w3.org/2000/svg" xmlns:xlink="http://www.w3.org/1999/xlink" x="0px" y="0px"
	 viewBox="0 0 1920 1080" style="enable-background:new 0 0 1920 1080;" xml:space="preserve">
<style type="text/css">
	.st0{fill:#EEF5FF;}
	.st1{opacity:0.7;}
	.st2{fill:#FFFFFF;}
	.st3{opacity:0.1;}
	.st4{fill:#89A5F4;}
</style>
<g>
	<rect x="420" y="-420" transform="matrix(6.123234e-17 -1 1 6.123234e-17 420 1500)" class="st0" width="1080" height="1920"/>
	<g class="st1">
		<path class="st2" d="M1109.9,971.17c-62.82-49.53-110.96-111.68-139.11-179.57C922.91,676.16,925.9,536.35,816.5,454.39
			c-61.53-46.1-152.81-63.27-232.42-43.73c-52.23,12.83-103.67,40.47-156.78,30.43c-61.33-11.6-92.58-66.89-113.52-115.93
			c-38.16-89.33-73.72-183.44-152.74-252.06C125.53,42.26,0,0,0,0l0,1080h1473.82C1274.3,1080,1168.93,1017.72,1109.9,971.17z"/>
	</g>
	<g class="st3">
		<path class="st4" d="M1920,0L984.47,0c265.33,0,182.73,372.28,374.21,517.51c221.11,167.7,561.32,0,561.32,562.49V0z"/>
	</g>
</g>
</svg>
