<?xml version="1.0" encoding="utf-8"?>
<!-- Generator: Adobe Illustrator 23.0.6, SVG Export Plug-In . SVG Version: 6.00 Build 0)  -->
<svg version="1.1" id="Layer_1" xmlns="http://www.w3.org/2000/svg" xmlns:xlink="http://www.w3.org/1999/xlink" x="0px" y="0px"
	 viewBox="0 0 42 42" style="enable-background:new 0 0 42 42;" xml:space="preserve">
<style type="text/css">
	.st0{fill:none;stroke:#407BFD;stroke-width:2;stroke-linecap:round;stroke-linejoin:round;stroke-miterlimit:10;}
	.st1{fill:none;stroke:#71ABFF;stroke-width:2;stroke-linecap:round;stroke-linejoin:round;stroke-miterlimit:10;}
	.st2{fill:none;stroke:#71ABFF;stroke-width:2;stroke-linejoin:round;stroke-miterlimit:10;}
</style>
<g>
	<path class="st0" d="M34.71,23.85H7.29v10.71c0,1.66,1.34,3,3,3h21.43c1.66,0,3-1.34,3-3V23.85z"/>
	<line class="st0" x1="3" y1="23.85" x2="39" y2="23.85"/>
	<rect x="26.14" y="20.42" class="st0" width="8.57" height="3.43"/>
	<path class="st0" d="M28.44,8.97h3.98c1.27,0,2.3,1.03,2.3,2.3v0c0,1.27-1.03,2.3-2.3,2.3h-3.98c-1.27,0-2.3-1.03-2.3-2.3v0
		C26.14,10,27.17,8.97,28.44,8.97z"/>
	<g>
		<path class="st1" d="M18.43,8.72c0,2.37-1.92,4.29-4.29,4.29s-4.29-1.92-4.29-4.29s1.92-4.29,4.29-4.29S18.43,6.36,18.43,8.72z"/>
		<path class="st2" d="M7.29,21.15c0-2.6,2.11-4.71,4.71-4.71h4.29c2.6,0,4.71,2.11,4.71,4.71"/>
	</g>
	<line class="st0" x1="30.43" y1="13.62" x2="30.43" y2="20.42"/>
</g>
</svg>
