<?xml version="1.0" encoding="utf-8"?>
<!-- Generator: Adobe Illustrator 23.0.6, SVG Export Plug-In . SVG Version: 6.00 Build 0)  -->
<svg version="1.1" id="Layer_1" xmlns="http://www.w3.org/2000/svg" xmlns:xlink="http://www.w3.org/1999/xlink" x="0px" y="0px"
	 viewBox="0 0 42 42" style="enable-background:new 0 0 42 42;" xml:space="preserve">
<style type="text/css">
	.st0{fill:#FFFFFF;}
	.st1{fill:none;stroke:#FFFFFF;stroke-width:2;stroke-linecap:round;stroke-linejoin:round;stroke-miterlimit:10;}
</style>
<g>
	<g>
		<path class="st0" d="M9.1,17.4v-5.8C9.1,9.9,9.9,9,11.5,9h5.9c1.6,0,2.5,0.8,2.5,2.5v5.8c0,1.7-0.8,2.5-2.5,2.5h-6
			C9.9,19.9,9.1,19.1,9.1,17.4z M9.1,30.4v-5.8c0-1.7,0.8-2.5,2.5-2.5h5.9c1.6,0,2.5,0.8,2.5,2.5v5.8c0,1.7-0.8,2.5-2.5,2.5h-6
			C9.9,33,9.1,32.1,9.1,30.4z M17.4,18.1c0.5,0,0.7-0.2,0.7-0.7v-5.8c0-0.5-0.2-0.7-0.7-0.7h-5.9c-0.5,0-0.7,0.2-0.7,0.7v5.8
			c0,0.5,0.2,0.7,0.7,0.7H17.4z M17.4,31.1c0.5,0,0.7-0.2,0.7-0.7v-5.8c0-0.5-0.2-0.7-0.7-0.7h-5.9c-0.5,0-0.7,0.2-0.7,0.7v5.8
			c0,0.5,0.2,0.7,0.7,0.7L17.4,31.1L17.4,31.1z M13.1,15.5v-2.1c0-0.2,0.1-0.3,0.2-0.3h2.2c0.2,0,0.3,0.1,0.3,0.3v2.1
			c0,0.2-0.1,0.3-0.3,0.3h-2.2C13.2,15.9,13.1,15.8,13.1,15.5z M13.1,28.6v-2.2c0-0.2,0.1-0.3,0.2-0.3h2.2c0.2,0,0.3,0.1,0.3,0.3
			v2.2c0,0.2-0.1,0.3-0.3,0.3h-2.2C13.2,28.9,13.1,28.8,13.1,28.6z M22.1,17.4v-5.8c0-1.7,0.8-2.5,2.5-2.5h5.9
			c1.6,0,2.5,0.8,2.5,2.5v5.8c0,1.7-0.8,2.5-2.5,2.5h-5.9C22.9,19.9,22.1,19.1,22.1,17.4z M22.7,25.1V23c0-0.2,0.1-0.3,0.3-0.3h2.2
			c0.2,0,0.3,0.1,0.3,0.3v2.1c0,0.2-0.1,0.3-0.3,0.3H23C22.8,25.4,22.7,25.4,22.7,25.1z M22.7,32v-2.1c0-0.2,0.1-0.3,0.3-0.3h2.2
			c0.2,0,0.3,0.1,0.3,0.3V32c0,0.2-0.1,0.3-0.3,0.3H23C22.8,32.3,22.7,32.2,22.7,32z M30.5,18.1c0.5,0,0.7-0.2,0.7-0.7v-5.8
			c0-0.5-0.2-0.7-0.7-0.7h-5.9c-0.5,0-0.7,0.2-0.7,0.7v5.8c0,0.5,0.2,0.7,0.7,0.7H30.5z M26.2,28.6v-2.2c0-0.2,0-0.3,0.2-0.3h2.2
			c0.2,0,0.3,0.1,0.3,0.3v2.2c0,0.2-0.1,0.3-0.3,0.3h-2.2C26.2,28.9,26.2,28.8,26.2,28.6z M26.2,15.5v-2.1c0-0.2,0.1-0.3,0.3-0.3
			h2.2c0.2,0,0.3,0.1,0.3,0.3v2.1c0,0.2-0.1,0.3-0.3,0.3h-2.2C26.3,15.9,26.2,15.8,26.2,15.5z M29.6,25.1V23c0-0.2,0-0.3,0.2-0.3
			h2.2c0.2,0,0.3,0.1,0.3,0.3v2.1c0,0.2-0.1,0.3-0.3,0.3h-2.2C29.6,25.4,29.6,25.4,29.6,25.1z M29.6,32v-2.1c0-0.2,0-0.3,0.2-0.3
			h2.2c0.2,0,0.3,0.1,0.3,0.3V32c0,0.2-0.1,0.3-0.3,0.3h-2.2C29.6,32.3,29.6,32.2,29.6,32z"/>
	</g>
	<g>
		<path class="st1" d="M39,13.3V6.4C39,4.5,37.5,3,35.6,3h-6.9"/>
		<path class="st1" d="M13.3,3H6.4C4.5,3,3,4.5,3,6.4v6.9"/>
		<path class="st1" d="M28.7,39h6.9c1.9,0,3.4-1.5,3.4-3.4v-6.9"/>
		<path class="st1" d="M3,28.7v6.9C3,37.5,4.5,39,6.4,39h6.9"/>
	</g>
</g>
</svg>
