<?xml version="1.0" encoding="utf-8"?>
<!-- Generator: Adobe Illustrator 23.0.6, SVG Export Plug-In . SVG Version: 6.00 Build 0)  -->
<svg version="1.1" id="Layer_1" xmlns="http://www.w3.org/2000/svg" xmlns:xlink="http://www.w3.org/1999/xlink" x="0px" y="0px"
	 viewBox="0 0 42 42" style="enable-background:new 0 0 42 42;" xml:space="preserve">
<style type="text/css">
	.st0{fill:#71ABFF;}
	.st1{fill:none;stroke:#407BFD;stroke-width:2;stroke-linecap:round;stroke-linejoin:round;stroke-miterlimit:10;}
</style>
<g>
	<g>
		<path class="st0" d="M9.05,17.4v-5.84c0-1.7,0.82-2.51,2.46-2.51h5.95c1.63,0,2.46,0.81,2.46,2.51v5.84c0,1.7-0.82,2.51-2.46,2.51
			H11.5C9.87,19.91,9.05,19.1,9.05,17.4z M9.05,30.43V24.6c0-1.7,0.82-2.53,2.46-2.53h5.95c1.63,0,2.46,0.82,2.46,2.53v5.83
			c0,1.7-0.82,2.53-2.46,2.53H11.5C9.87,32.95,9.05,32.13,9.05,30.43z M17.42,18.12c0.46,0,0.68-0.25,0.68-0.72v-5.84
			c0-0.47-0.23-0.7-0.68-0.7h-5.88c-0.47,0-0.68,0.23-0.68,0.7v5.84c0,0.47,0.21,0.72,0.68,0.72H17.42z M17.42,31.15
			c0.46,0,0.68-0.25,0.68-0.7V24.6c0-0.47-0.23-0.72-0.68-0.72h-5.88c-0.47,0-0.68,0.25-0.68,0.72v5.84c0,0.46,0.21,0.7,0.68,0.7
			H17.42z M13.12,15.54V13.4c0-0.21,0.05-0.28,0.25-0.28h2.21c0.19,0,0.28,0.07,0.28,0.28v2.14c0,0.23-0.09,0.32-0.28,0.32h-2.21
			C13.17,15.86,13.12,15.77,13.12,15.54z M13.12,28.58v-2.16c0-0.19,0.05-0.28,0.25-0.28h2.21c0.19,0,0.28,0.09,0.28,0.28v2.16
			c0,0.21-0.09,0.3-0.28,0.3h-2.21C13.17,28.88,13.12,28.79,13.12,28.58z M22.07,17.4v-5.84c0-1.7,0.82-2.51,2.47-2.51h5.93
			c1.65,0,2.47,0.81,2.47,2.51v5.84c0,1.7-0.82,2.51-2.47,2.51h-5.93C22.9,19.91,22.07,19.1,22.07,17.4z M22.69,25.12v-2.14
			c0-0.21,0.07-0.28,0.26-0.28h2.21c0.19,0,0.26,0.07,0.26,0.28v2.14c0,0.23-0.07,0.3-0.26,0.3h-2.21
			C22.76,25.42,22.69,25.35,22.69,25.12z M22.69,32.02v-2.14c0-0.21,0.07-0.28,0.26-0.28h2.21c0.19,0,0.26,0.07,0.26,0.28v2.14
			c0,0.23-0.07,0.32-0.26,0.32h-2.21C22.76,32.34,22.69,32.25,22.69,32.02z M30.46,18.12c0.46,0,0.68-0.25,0.68-0.72v-5.84
			c0-0.47-0.23-0.7-0.68-0.7h-5.88c-0.47,0-0.7,0.23-0.7,0.7v5.84c0,0.47,0.23,0.72,0.7,0.72H30.46z M26.18,28.58v-2.16
			c0-0.19,0.05-0.28,0.25-0.28h2.21c0.19,0,0.28,0.09,0.28,0.28v2.16c0,0.21-0.09,0.3-0.28,0.3h-2.21
			C26.23,28.88,26.18,28.79,26.18,28.58z M26.21,15.54V13.4c0-0.21,0.07-0.28,0.26-0.28h2.21c0.19,0,0.26,0.07,0.26,0.28v2.14
			c0,0.23-0.07,0.32-0.26,0.32h-2.21C26.28,15.86,26.21,15.77,26.21,15.54z M29.6,25.12v-2.14c0-0.21,0.05-0.28,0.25-0.28h2.21
			c0.19,0,0.26,0.07,0.26,0.28v2.14c0,0.23-0.07,0.3-0.26,0.3h-2.21C29.65,25.42,29.6,25.35,29.6,25.12z M29.6,32.02v-2.14
			c0-0.21,0.05-0.28,0.25-0.28h2.21c0.19,0,0.26,0.07,0.26,0.28v2.14c0,0.23-0.07,0.32-0.26,0.32h-2.21
			C29.65,32.34,29.6,32.25,29.6,32.02z"/>
	</g>
	<g>
		<path class="st1" d="M39,13.29V6.43C39,4.54,37.46,3,35.57,3h-6.86"/>
		<path class="st1" d="M13.29,3H6.43C4.53,3,3,4.54,3,6.43v6.86"/>
		<path class="st1" d="M28.71,39h6.86c1.89,0,3.43-1.53,3.43-3.43v-6.86"/>
		<path class="st1" d="M3,28.71v6.86C3,37.47,4.53,39,6.43,39h6.86"/>
	</g>
</g>
</svg>
