<?xml version="1.0" encoding="utf-8"?>
<!-- Generator: Adobe Illustrator 23.0.6, SVG Export Plug-In . SVG Version: 6.00 Build 0)  -->
<svg version="1.1" id="Layer_1" xmlns="http://www.w3.org/2000/svg" xmlns:xlink="http://www.w3.org/1999/xlink" x="0px" y="0px"
	 viewBox="0 0 42 42" style="enable-background:new 0 0 42 42;" xml:space="preserve">
<style type="text/css">
	.st0{fill:#ED1E79;}
	.st1{fill:none;stroke:#ED1E79;stroke-width:2;stroke-linecap:round;stroke-linejoin:round;stroke-miterlimit:10;}
	.st2{fill:none;stroke:#93278F;stroke-width:2;stroke-linecap:round;stroke-linejoin:round;stroke-miterlimit:10;}
</style>
<g>
	<g>
		<g>
			<g>
				<path class="st0" d="M6.18,30.32H2.46c-0.21,0-0.4-0.14-0.43-0.34c-0.13-0.68-0.15-1.36-0.06-2.04
					c0.42-3.18,3.15-5.62,6.34-5.67c0.03,0,0.07,0,0.1,0c0.63,0,1.25,0.11,1.84,0.28c0.06-0.06,0.11-0.12,0.16-0.18
					c0.48-0.47,0.99-0.89,1.51-1.28l-0.77-0.27c-0.93-0.32-1.89-0.48-2.88-0.46c-4.14,0.06-7.66,3.22-8.21,7.33
					c-0.12,0.88-0.09,1.78,0.08,2.65c0.21,1.09,1.18,1.89,2.31,1.89h3.5C6,31.59,6.07,30.95,6.18,30.32z"/>
				<path class="st0" d="M41.93,27.69c-0.54-4.11-4.07-7.27-8.21-7.33c-0.99-0.02-1.96,0.14-2.82,0.44l-0.93,0.25
					c0.61,0.46,1.19,0.97,1.72,1.52c0.65-0.19,1.32-0.31,1.99-0.29c3.2,0.05,5.92,2.49,6.34,5.67c0.09,0.68,0.07,1.37-0.06,2.04
					c-0.04,0.2-0.22,0.34-0.43,0.34H35.8c0.05,0.29,0.12,0.57,0.15,0.86c0.05,0.35,0.07,0.7,0.1,1.05h3.49
					c1.13,0,2.1-0.79,2.31-1.89C42.02,29.47,42.05,28.57,41.93,27.69z"/>
			</g>
		</g>
		<path class="st1" d="M37.32,13.77c0,2.06-1.67,3.73-3.73,3.73s-3.73-1.67-3.73-3.73s1.67-3.73,3.73-3.73S37.32,11.71,37.32,13.77z
			"/>
		<path class="st1" d="M8.41,10.04c2.06,0,3.73,1.67,3.73,3.73s-1.67,3.73-3.73,3.73s-3.73-1.67-3.73-3.73S6.35,10.04,8.41,10.04z"
			/>
	</g>
	<g>
		<path class="st2" d="M30.75,37.23h-19.5c-1.08,0-2.04-0.76-2.25-1.82c-0.14-0.74-0.22-1.5-0.22-2.28
			c0-6.81,5.58-12.32,12.41-12.22c6,0.09,11.14,4.7,11.92,10.65c0.18,1.33,0.12,2.62-0.12,3.85C32.79,36.47,31.84,37.23,30.75,37.23
			z"/>
		<path class="st2" d="M27.11,10.88c0,3.37-2.74,6.11-6.11,6.11s-6.11-2.74-6.11-6.11S17.63,4.77,21,4.77S27.11,7.51,27.11,10.88z"
			/>
	</g>
</g>
</svg>
