<?xml version="1.0" encoding="utf-8"?>
<!-- Generator: Adobe Illustrator 23.0.6, SVG Export Plug-In . SVG Version: 6.00 Build 0)  -->
<svg version="1.1" id="Layer_1" xmlns="http://www.w3.org/2000/svg" xmlns:xlink="http://www.w3.org/1999/xlink" x="0px" y="0px"
	 viewBox="0 0 32 32" style="enable-background:new 0 0 32 32;" xml:space="preserve">
<style type="text/css">
	.st0{fill:#71ABFF;}
</style>
<g>
	<path class="st0" d="M16,32C7.18,32,0,24.82,0,16S7.18,0,16,0s16,7.18,16,16S24.82,32,16,32z M16,0.97C7.71,0.97,0.97,7.71,0.97,16
		S7.71,31.03,16,31.03S31.03,24.29,31.03,16S24.29,0.97,16,0.97z"/>
	<g>
		<g>
			<path class="st0" d="M13.34,25.21c-0.04,0-0.09,0-0.13-0.01c-0.32-0.04-0.6-0.22-0.77-0.5l-1.82-3.33l-3.31-1.82
				c-0.29-0.18-0.47-0.46-0.51-0.78c-0.04-0.32,0.07-0.63,0.3-0.86l0.98-0.98c0.23-0.23,0.56-0.34,0.88-0.29l2.24,0.32l8.88-8.87
				c0.51-0.51,1.34-0.96,2.19-1.17c1.05-0.27,1.91-0.13,2.43,0.39l0,0c1.17,1.17,0.14,3.69-0.79,4.62l-8.88,8.88l0.32,2.24
				c0.05,0.32-0.06,0.65-0.29,0.88l-0.98,0.98C13.87,25.1,13.61,25.21,13.34,25.21z M7.78,18.72l3.43,1.88
				c0.08,0.04,0.15,0.11,0.19,0.19l1.88,3.43l0.1,0l0.98-0.98l-0.33-2.54c-0.02-0.15,0.03-0.3,0.14-0.41l9.05-9.05
				c0.8-0.8,1.36-2.68,0.79-3.25l0,0c-0.26-0.26-0.82-0.31-1.5-0.13c-0.66,0.17-1.37,0.54-1.74,0.92l-9.05,9.05
				c-0.11,0.11-0.26,0.16-0.41,0.14l-2.48-0.35l-1.04,1l-0.24,0.53L7.78,18.72z"/>
		</g>
		<g>
			<path class="st0" d="M15.01,11.02c-0.04,0-0.09-0.01-0.13-0.02l-2.23-0.61c-0.17-0.05-0.3-0.18-0.34-0.34
				c-0.04-0.17,0-0.34,0.13-0.47l1.36-1.36c0.52-0.52,1.43-0.52,1.95,0l0.15,0.15c0.26,0.26,0.4,0.61,0.4,0.98
				c0,0.37-0.14,0.72-0.4,0.98l-0.55,0.55C15.26,10.97,15.14,11.02,15.01,11.02z M13.72,9.68L14.87,10l0.35-0.35
				c0.08-0.08,0.12-0.18,0.12-0.29c0-0.11-0.04-0.21-0.12-0.29l-0.15-0.15c-0.16-0.16-0.43-0.16-0.58,0L13.72,9.68z"/>
			<path class="st0" d="M22.07,19.7c-0.04,0-0.08-0.01-0.12-0.02c-0.17-0.04-0.3-0.17-0.34-0.34l-0.61-2.23
				c-0.05-0.17,0-0.35,0.12-0.47l0.55-0.55c0.54-0.54,1.41-0.54,1.95,0l0.15,0.15c0.26,0.26,0.4,0.61,0.4,0.98
				c0,0.37-0.14,0.71-0.4,0.98l-1.36,1.36C22.32,19.65,22.2,19.7,22.07,19.7z M22,17.13l0.31,1.15l0.77-0.77
				c0.08-0.08,0.12-0.18,0.12-0.29c0-0.11-0.04-0.21-0.12-0.29c0,0,0,0,0,0l-0.15-0.15c-0.16-0.16-0.42-0.16-0.58,0L22,17.13z"/>
		</g>
		<path class="st0" d="M20.55,24.3c-0.05,0-0.1,0-0.15-0.01c-0.33-0.05-0.61-0.24-0.77-0.52l-3.01-5.42
			c-0.11-0.19-0.07-0.43,0.08-0.58l3.71-3.71c0.12-0.12,0.3-0.17,0.47-0.13c0.17,0.04,0.3,0.17,0.34,0.34l1.94,7.11
			c0.1,0.36-0.01,0.75-0.27,1.01l-1.61,1.61C21.08,24.19,20.82,24.3,20.55,24.3z M17.65,18.19l2.84,5.1l0.11,0.02l1.61-1.61
			l-1.7-6.37L17.65,18.19z M13.9,15.44c-0.08,0-0.16-0.02-0.24-0.06l-5.42-3.01c-0.29-0.16-0.48-0.44-0.53-0.77
			c-0.05-0.33,0.06-0.65,0.29-0.88l1.61-1.61c0.25-0.25,0.67-0.36,1.01-0.27l7.11,1.94c0.17,0.05,0.3,0.18,0.34,0.34
			c0.04,0.17,0,0.34-0.13,0.47l-3.71,3.71C14.15,15.39,14.02,15.44,13.9,15.44z M8.71,11.52l5.1,2.84l2.86-2.86l-6.3-1.72
			l-1.68,1.63l-0.22,0.54L8.71,11.52z"/>
	</g>
</g>
</svg>
