<?xml version="1.0" encoding="utf-8"?>
<!-- Generator: Adobe Illustrator 23.0.6, SVG Export Plug-In . SVG Version: 6.00 Build 0)  -->
<svg version="1.1" id="Layer_1" xmlns="http://www.w3.org/2000/svg" xmlns:xlink="http://www.w3.org/1999/xlink" x="0px" y="0px"
	 viewBox="0 0 32 32" style="enable-background:new 0 0 32 32;" xml:space="preserve">
<style type="text/css">
	.st0{fill:#71ABFF;}
	.st1{fill:#407BFE;}
</style>
<g>
	<path class="st0" d="M24.56,9.56L20.12,14v12.5c0,0.83-0.67,1.5-1.5,1.5h-0.75c-0.83,0-1.5-0.67-1.5-1.5v-5.25h-0.75v5.25
		c0,0.83-0.67,1.5-1.5,1.5h-0.75c-0.83,0-1.5-0.67-1.5-1.5V14L7.44,9.56c-0.59-0.59-0.59-1.54,0-2.12c0.59-0.59,1.54-0.59,2.12,0
		l4.06,4.06h4.76l4.06-4.06c0.59-0.59,1.54-0.59,2.12,0C25.15,8.03,25.15,8.97,24.56,9.56z"/>
	<circle class="st1" cx="16" cy="7.38" r="3.38"/>
</g>
</svg>
