<?xml version="1.0" encoding="utf-8"?>
<!-- Generator: Adobe Illustrator 23.0.6, SVG Export Plug-In . SVG Version: 6.00 Build 0)  -->
<svg version="1.1" id="Layer_1" xmlns="http://www.w3.org/2000/svg" xmlns:xlink="http://www.w3.org/1999/xlink" x="0px" y="0px"
	 viewBox="0 0 30 30" style="enable-background:new 0 0 30 30;" xml:space="preserve">
<style type="text/css">
	.st0{fill:#0439D8;}
</style>
<g>
	<g>
		<path class="st0" d="M4.49,8.4H0.71C0.32,8.4,0,8.09,0,7.7V3.93c0-0.39,0.32-0.71,0.71-0.71h3.78c0.39,0,0.71,0.32,0.71,0.71V7.7
			C5.2,8.09,4.88,8.4,4.49,8.4z M4.49,17.81H0.71C0.32,17.81,0,17.5,0,17.11v-3.76c0-0.39,0.32-0.71,0.71-0.71h3.78
			c0.39,0,0.71,0.32,0.71,0.71v3.76C5.2,17.5,4.88,17.81,4.49,17.81z M4.49,27.23H0.71C0.32,27.23,0,26.91,0,26.52v-3.76
			c0-0.39,0.32-0.71,0.71-0.71h3.78c0.39,0,0.71,0.32,0.71,0.71v3.76C5.2,26.91,4.88,27.23,4.49,27.23z M8.03,7.46
			c-0.39,0-0.71-0.32-0.71-0.71V4.87c0-0.39,0.32-0.71,0.71-0.71h21.26c0.39,0,0.71,0.32,0.71,0.71v1.88c0,0.39-0.32,0.71-0.71,0.71
			H8.03z M29.29,16.87H8.03c-0.39,0-0.71-0.32-0.71-0.71v-1.88c0-0.39,0.32-0.71,0.71-0.71h21.26c0.39,0,0.71,0.32,0.71,0.71v1.88
			C30,16.56,29.68,16.87,29.29,16.87z M29.29,26.29H8.03c-0.39,0-0.71-0.32-0.71-0.71V23.7c0-0.39,0.32-0.71,0.71-0.71h21.26
			c0.39,0,0.71,0.32,0.71,0.71v1.88C30,25.97,29.68,26.29,29.29,26.29z"/>
	</g>
</g>
</svg>
