<?xml version="1.0" encoding="utf-8"?>
<!-- Generator: Adobe Illustrator 23.0.6, SVG Export Plug-In . SVG Version: 6.00 Build 0)  -->
<svg version="1.1" id="Layer_1" xmlns="http://www.w3.org/2000/svg" xmlns:xlink="http://www.w3.org/1999/xlink" x="0px" y="0px"
	 viewBox="0 0 24 24" style="enable-background:new 0 0 24 24;" xml:space="preserve">
<style type="text/css">
	.st0{fill:#71ABFF;}
</style>
<g>
	<path class="st0" d="M24,5.33v13.33c0,1.47-1.2,2.67-2.67,2.67H2.67C1.2,21.33,0,20.14,0,18.67V5.33c0-1.47,1.2-2.67,2.67-2.67
		h18.67C22.8,2.67,24,3.86,24,5.33z M22.67,5.33c0-0.73-0.6-1.33-1.33-1.33H2.67C1.93,4,1.33,4.6,1.33,5.33v13.33
		c0,0.73,0.6,1.33,1.33,1.33h18.67c0.73,0,1.33-0.6,1.33-1.33V5.33z M12.87,15.14c0.3,0.45,0.47,0.98,0.47,1.56v0.96
		c0,0.18-0.15,0.33-0.33,0.33h-0.67c-0.18,0-0.33-0.15-0.33-0.33V16.7c0-0.29-0.09-0.58-0.25-0.82c-0.23-0.34-0.66-0.55-1.14-0.55
		c-0.52,0-0.87,0.29-1.95,0.29c-1.08,0-1.43-0.29-1.95-0.29c-0.48,0-0.9,0.2-1.14,0.55c-0.16,0.24-0.25,0.52-0.25,0.82v0.96
		C5.33,17.85,5.18,18,5,18H4.33C4.15,18,4,17.85,4,17.67V16.7c0-0.58,0.17-1.12,0.48-1.56C4.98,14.39,5.83,14,6.72,14
		c0.81,0,1.02,0.29,1.95,0.29S9.8,14,10.62,14C11.5,14,12.35,14.39,12.87,15.14z M5.33,10c0-1.84,1.49-3.33,3.33-3.33S12,8.16,12,10
		c0,1.84-1.49,3.33-3.33,3.33S5.33,11.84,5.33,10z M6.67,10c0,1.1,0.9,2,2,2s2-0.9,2-2s-0.9-2-2-2S6.67,8.9,6.67,10z M20,8.33V9
		c0,0.18-0.15,0.33-0.33,0.33H15c-0.18,0-0.33-0.15-0.33-0.33V8.33C14.67,8.15,14.82,8,15,8h4.67C19.85,8,20,8.15,20,8.33z M20,11
		v0.67c0,0.18-0.15,0.33-0.33,0.33H15c-0.18,0-0.33-0.15-0.33-0.33V11c0-0.18,0.15-0.33,0.33-0.33h4.67C19.85,10.67,20,10.82,20,11z
		 M20,13.67v0.67c0,0.18-0.15,0.33-0.33,0.33H15c-0.18,0-0.33-0.15-0.33-0.33v-0.67c0-0.18,0.15-0.33,0.33-0.33h4.67
		C19.85,13.33,20,13.48,20,13.67z"/>
</g>
</svg>
