<?xml version="1.0" encoding="utf-8"?>
<!-- Generator: Adobe Illustrator 23.0.6, SVG Export Plug-In . SVG Version: 6.00 Build 0)  -->
<svg version="1.1" id="Layer_1" xmlns="http://www.w3.org/2000/svg" xmlns:xlink="http://www.w3.org/1999/xlink" x="0px" y="0px"
	 viewBox="0 0 24 24" style="enable-background:new 0 0 24 24;" xml:space="preserve">
<style type="text/css">
	.st0{fill:#71ABFF;}
</style>
<g>
	<path class="st0" d="M24,8.25v12c0,1.24-1.01,2.25-2.25,2.25H2.25C1.01,22.5,0,21.49,0,20.25v-12C0,7.01,1.01,6,2.25,6H7.5V2.63
		C7.5,2,8,1.5,8.62,1.5h6.75C16,1.5,16.5,2,16.5,2.63V6h5.25C22.99,6,24,7.01,24,8.25z M22.5,8.25c0-0.41-0.34-0.75-0.75-0.75H2.25
		C1.84,7.5,1.5,7.84,1.5,8.25V12h21V8.25z M22.5,13.5H15v1.88c0,0.62-0.5,1.12-1.12,1.12h-3.75C9.5,16.5,9,16,9,15.38V13.5H1.5v6.75
		C1.5,20.66,1.84,21,2.25,21h19.5c0.41,0,0.75-0.34,0.75-0.75V13.5z M9,6h6V3H9V6z M13.5,15v-1.5h-3V15H13.5z"/>
</g>
</svg>
