<?xml version="1.0" encoding="utf-8"?>
<!-- Generator: Adobe Illustrator 23.0.6, SVG Export Plug-In . SVG Version: 6.00 Build 0)  -->
<svg version="1.1" id="Layer_1" xmlns="http://www.w3.org/2000/svg" xmlns:xlink="http://www.w3.org/1999/xlink" x="0px" y="0px"
	 viewBox="0 0 32 32" style="enable-background:new 0 0 32 32;" xml:space="preserve">
<style type="text/css">
	.st0{fill:#F25366;}
</style>
<g>
	<g>
		<path class="st0" d="M18.96,22.9h-5.93c-0.57,0-1.05-0.43-1.1-1l-1-10.42c-0.01-0.14,0.03-0.28,0.13-0.38s0.23-0.16,0.37-0.16
			h9.14c0.14,0,0.28,0.06,0.37,0.16s0.14,0.24,0.13,0.38l-1,10.42C20.01,22.47,19.54,22.9,18.96,22.9z M11.98,11.93l0.95,9.87
			c0.01,0.06,0.05,0.1,0.11,0.1h5.93c0.06,0,0.1-0.04,0.11-0.1l0.95-9.87H11.98z"/>
		<path class="st0" d="M21.49,11.93H10.51c-0.28,0-0.5-0.22-0.5-0.5s0.22-0.5,0.5-0.5h10.97c0.28,0,0.5,0.22,0.5,0.5
			S21.76,11.93,21.49,11.93z"/>
		<path class="st0" d="M18.44,11.93h-4.88c-0.17,0-0.33-0.09-0.43-0.24s-0.1-0.33-0.02-0.49l0.66-1.32C14.02,9.4,14.5,9.1,15.04,9.1
			h1.92c0.54,0,1.02,0.3,1.26,0.78l0.66,1.32c0.08,0.16,0.07,0.34-0.02,0.49S18.61,11.93,18.44,11.93z M14.37,10.93h3.26l-0.3-0.6
			c-0.07-0.14-0.21-0.23-0.37-0.23h-1.92c-0.16,0-0.3,0.09-0.37,0.23L14.37,10.93z"/>
	</g>
	<path class="st0" d="M16,1c8.27,0,15,6.73,15,15s-6.73,15-15,15S1,24.27,1,16S7.73,1,16,1 M16,0C7.16,0,0,7.16,0,16
		c0,8.84,7.16,16,16,16s16-7.16,16-16C32,7.16,24.84,0,16,0L16,0z"/>
</g>
</svg>
