<?xml version="1.0" encoding="utf-8"?>
<!-- Generator: Adobe Illustrator 23.0.6, SVG Export Plug-In . SVG Version: 6.00 Build 0)  -->
<svg version="1.1" id="Layer_1" xmlns="http://www.w3.org/2000/svg" xmlns:xlink="http://www.w3.org/1999/xlink" x="0px" y="0px"
	 viewBox="0 0 32 32" style="enable-background:new 0 0 32 32;" xml:space="preserve">
<style type="text/css">
	.st0{fill:#29D3AA;}
</style>
<g>
	<path class="st0" d="M16,1c8.27,0,15,6.73,15,15s-6.73,15-15,15S1,24.27,1,16S7.73,1,16,1 M16,0C7.16,0,0,7.16,0,16
		c0,8.84,7.16,16,16,16s16-7.16,16-16C32,7.16,24.84,0,16,0L16,0z"/>
	<g>
		<g>
			<path class="st0" d="M20.71,24.5c-0.28,0-0.5-0.22-0.5-0.5s0.22-0.5,0.5-0.5c0.98,0,1.79-0.8,1.79-1.79V8.5H11.57
				c-0.56,0-1.02,0.46-1.02,1.02v11.43c0,0.28-0.22,0.5-0.5,0.5s-0.5-0.22-0.5-0.5V9.52c0-1.12,0.91-2.02,2.02-2.02H23
				c0.28,0,0.5,0.22,0.5,0.5v13.71C23.5,23.25,22.25,24.5,20.71,24.5z"/>
			<path class="st0" d="M20.71,24.5H9.29c-1.54,0-2.79-1.25-2.79-2.79v-0.76c0-0.28,0.22-0.5,0.5-0.5h11.43c0.28,0,0.5,0.22,0.5,0.5
				v0.76c0,0.99,0.8,1.79,1.79,1.79c0.28,0,0.5,0.22,0.5,0.5S20.99,24.5,20.71,24.5z M7.5,21.45v0.26c0,0.99,0.8,1.79,1.79,1.79
				h9.29c-0.41-0.48-0.65-1.11-0.65-1.79v-0.26H7.5z"/>
		</g>
		<g>
			<path class="st0" d="M16.57,18.36c-2.17,0-3.93-1.76-3.93-3.93s1.76-3.93,3.93-3.93c2.17,0,3.93,1.76,3.93,3.93
				S18.73,18.36,16.57,18.36z M16.57,11.5c-1.61,0-2.93,1.31-2.93,2.93s1.31,2.93,2.93,2.93s2.93-1.31,2.93-2.93
				S18.18,11.5,16.57,11.5z"/>
			<path class="st0" d="M15.43,16.07c-0.13,0-0.26-0.05-0.35-0.15c-0.2-0.2-0.2-0.51,0-0.71l0.99-0.99v-1.84
				c0-0.28,0.22-0.5,0.5-0.5s0.5,0.22,0.5,0.5v2.05c0,0.13-0.05,0.26-0.15,0.35l-1.14,1.14C15.69,16.02,15.56,16.07,15.43,16.07z"/>
		</g>
	</g>
</g>
</svg>
