<?xml version="1.0" encoding="utf-8"?>
<!-- Generator: Adobe Illustrator 23.0.6, SVG Export Plug-In . SVG Version: 6.00 Build 0)  -->
<svg version="1.1" id="Layer_1" xmlns="http://www.w3.org/2000/svg" xmlns:xlink="http://www.w3.org/1999/xlink" x="0px" y="0px"
	 viewBox="0 0 160 77" style="enable-background:new 0 0 160 77;" xml:space="preserve">
<style type="text/css">
	.st0{fill:#FFFFFF;}
	.st1{fill:#21409A;}
	.st2{fill:#E6252B;}
</style>
<g>
	<rect x="80" y="5.62" class="st0" width="74.55" height="40.79"/>
	<g>
		<path class="st1" d="M18.99,46.37c-4.74,0-9.48,0.01-14.22,0c-2.48-0.01-4.56-1.97-4.74-4.43C0.01,41.71,0,41.49,0,41.27
			c0-12,0-24.01,0-36.01C0,2.77,1.43,0.86,3.7,0.28c0.59-0.15,1.19-0.15,1.8-0.15c9.2,0,18.39-0.01,27.59,0
			c2.19,0,3.51,1.32,3.51,3.48c0.01,1.59,0.01,3.17,0,4.76c-0.01,2.04-1.33,3.36-3.37,3.36c-5.27,0.01-10.54,0-15.81,0
			c-1.5,0-3.01,0.02-4.51,0.04c-0.94,0.01-1.36,0.44-1.37,1.4c0,0.94,0,1.87,0,2.81c0,1.05,0.42,1.48,1.47,1.48
			c5.43,0,10.87,0,16.3,0c2.34,0,3.63,1.28,3.64,3.61c0,1.49,0,2.97,0,4.46c0,2.24-1.28,3.53-3.51,3.53
			c-5.41,0-10.82,0.01-16.24,0.01c-1.29,0-1.66,0.38-1.66,1.68c0,0.9-0.01,1.79,0,2.69c0.01,0.9,0.45,1.34,1.36,1.34
			c6.69,0,13.39,0,20.08,0c1.81,0,3.06,0.85,3.51,2.36c0.1,0.34,0.12,0.68,0.12,1.03c0,1.63,0.01,3.26,0,4.88
			c-0.01,2.03-1.34,3.35-3.38,3.35C28.47,46.38,23.73,46.38,18.99,46.37C18.99,46.38,18.99,46.37,18.99,46.37z"/>
		<path class="st1" d="M36.97,22.58C37.07,12.97,43.89,4,53.74,1.16c4.47-1.29,8.92-1.23,13.41,0c2.6,0.71,3.99,2.26,4.35,4.92
			c0.29,2.11,0.77,4.19,1.16,6.28c0.07,0.36,0.13,0.73,0,1.08c-0.28,0.75-1.13,0.99-1.94,0.52c-1.59-0.93-3.24-1.67-5.04-2.08
			c-6.67-1.54-13.51,3.06-14.56,9.78c-0.84,5.37,2.62,10.82,7.92,12.63c4.07,1.38,7.8,0.55,11.39-1.5c0.42-0.24,0.81-0.56,1.35-0.41
			c0.75,0.22,1.07,0.82,0.9,1.74c-0.25,1.32-0.5,2.63-0.75,3.94c-0.23,1.18-0.44,2.35-0.68,3.52c-0.35,1.69-1.36,2.83-2.97,3.43
			c-10.21,3.76-22.24-0.46-27.89-9.76C38.13,31.54,36.98,27.54,36.97,22.58z"/>
		<g>
			<path class="st2" d="M123.06,29.01c-0.78-0.54-1.84-0.81-3.18-0.81c-1.19,0-2.14,0.27-2.84,0.81c-0.7,0.54-1.04,1.28-1.04,2.22
				c0,0.97,0.35,1.71,1.04,2.22c0.7,0.51,1.64,0.77,2.84,0.77c1.36,0,2.43-0.26,3.2-0.77c0.77-0.51,1.15-1.25,1.15-2.22
				C124.23,30.29,123.84,29.55,123.06,29.01z"/>
			<path class="st2" d="M98.92,13.57h-8.53v9.25h8.53c1.42,0,2.52-0.4,3.28-1.22c0.77-0.81,1.15-1.97,1.15-3.48
				c0-1.45-0.38-2.57-1.15-3.37C101.44,13.97,100.34,13.57,98.92,13.57z"/>
			<path class="st2" d="M159.92,4.09c-0.51-2.45-2.46-3.96-5.13-3.96c-25.71,0-51.43,0-77.14,0c-0.26,0-0.53,0.01-0.79,0.05
				c-1.42,0.21-2.39,1.49-2.13,2.9c0.36,1.97,0.8,3.93,1.19,5.9c0.35,1.73,0.81,3.44,0.68,5.24c-0.22,3.09-2.94,5.3-5.92,4.8
				c-1-0.17-1.78-0.72-2.53-1.38c-1.73-1.54-3.77-2.11-6.05-1.74c-3.84,0.61-7.07,4.28-5.81,9.42c1.3,5.33,7.9,7.28,11.93,3.48
				c2.86-2.7,7.47-0.85,8.2,2.45c0.23,1.07,0.29,2.15,0.09,3.21c-0.46,2.43-0.97,4.85-1.46,7.28c-0.15,0.73-0.41,1.46-0.38,2.21
				c0.05,1.29,1.11,2.47,2.91,2.47c12.92-0.03,25.84-0.02,38.76-0.02c5.95,0,11.9,0,17.85,0c1.83-3.94,3.69-7.92,3.83-8.23
				l0.64-1.45l-8.19-19.96c0.2-0.14,0.58-0.26,1.13-0.34c0.55-0.09,1.02-0.13,1.39-0.13c0.88,0,1.7,0.19,2.45,0.55
				c0.75,0.37,1.26,0.9,1.51,1.58l4.18,11.13l0.26,0.68l4.6-11.81c0.28-0.71,0.79-1.24,1.51-1.6c0.72-0.36,1.54-0.53,2.45-0.53
				c0.37,0,0.83,0.04,1.39,0.13c0.55,0.09,0.93,0.2,1.13,0.34l-9.51,23.11c-0.16,0.38-1.48,3.25-3,6.53c4.86,0,9.72,0,14.58,0
				c0.33,0,0.65,0,0.98-0.02c2.51-0.18,4.47-2.25,4.47-4.77C160,29.43,160,17.25,160,5.06C160,4.74,159.98,4.41,159.92,4.09z
				 M108.3,23.49c-0.88,1.52-2.13,2.69-3.73,3.52c-1.61,0.82-3.49,1.24-5.65,1.24h-8.53v5.63c0,1.48-0.53,2.6-1.6,3.37
				c-1.07,0.77-2.62,1.15-4.67,1.15V11.01c0-0.82,0.31-1.51,0.92-2.05c0.61-0.54,1.36-0.81,2.24-0.81h11.64
				c2.1,0,3.97,0.42,5.59,1.26c1.62,0.84,2.88,2.01,3.77,3.52c0.9,1.51,1.34,3.26,1.34,5.24C109.63,20.2,109.18,21.97,108.3,23.49z
				 M129.9,34.59c0,1.34-0.43,2.3-1.3,2.9c-0.81,0.56-2.07,0.85-3.77,0.89l0,0.01h-0.69V36.5c-0.58,0.47-1.18,0.85-1.79,1.15
				c-1.02,0.5-2.39,0.75-4.09,0.75c-1.39,0-2.69-0.28-3.9-0.83c-1.21-0.55-2.18-1.36-2.92-2.43c-0.74-1.07-1.11-2.35-1.11-3.86
				c0-1.51,0.4-2.81,1.19-3.9c0.8-1.09,1.86-1.93,3.18-2.49c1.32-0.57,2.76-0.85,4.33-0.85c1.31,0,2.47,0.2,3.48,0.6
				c0.57,0.22,1.11,0.51,1.64,0.86v-0.51V24.4c0-1.08-0.39-1.94-1.17-2.58c-0.78-0.64-1.88-0.96-3.3-0.96
				c-1.25,0-2.36,0.23-3.33,0.68c-0.59,0.28-1.1,0.63-1.55,1.06c-0.69,0.67-1.82,0.67-2.5,0c0,0-0.01-0.01-0.01-0.01
				c-0.47-0.47-0.7-0.99-0.7-1.56c0-0.88,0.38-1.68,1.15-2.41c0.77-0.72,1.81-1.29,3.13-1.71c1.32-0.41,2.78-0.62,4.37-0.62
				c3.1,0,5.49,0.71,7.16,2.13c1.68,1.42,2.52,3.35,2.52,5.8V34.59z"/>
		</g>
	</g>
	<g>
		<path class="st1" d="M74.61,71.93v-7.05h-1.82v-3.67h1.82v-6.87h6.92c5.49,0,7.95,3.3,7.95,8.72c0,5.48-2.53,8.86-7.95,8.86H74.61
			z M80.82,68.47c2.47,0,4.26-1.06,4.26-5.4c0-3.09-0.95-5.45-4.26-5.45h-1.96v3.59h3.03v3.67h-3.03v3.58H80.82z"/>
		<path class="st1" d="M93.55,71.93l5.67-17.59h5.21l5.63,17.59h-4.54l-1.13-4.03h-5.44l-1.15,4.03H93.55z M101.6,58.16l-1.87,6.66
			h3.89l-1.83-6.66H101.6z M101.78,73.52c0.93,0,1.66,0.75,1.66,1.69c0,0.93-0.73,1.67-1.66,1.67c-0.91,0-1.66-0.75-1.66-1.67
			C100.12,74.27,100.87,73.52,101.78,73.52z"/>
		<path class="st1" d="M115.01,71.93V54.35h4.26v17.59H115.01z"/>
		<path class="st1" d="M142.26,71.93h-11.31V54.35h4.26v14.03h7.05V71.93z"/>
		<path class="st1" d="M149.86,71.93v-6.12l-5.89-11.47h4.66l3.34,7.24h0.15l3.35-7.24H160l-5.89,11.35v6.24H149.86z M150.41,52.61
			l2.77-3.89h3.45l-3.41,3.89H150.41z"/>
	</g>
</g>
</svg>
