<?xml version="1.0" encoding="utf-8"?>
<!-- Generator: Adobe Illustrator 23.0.6, SVG Export Plug-In . SVG Version: 6.00 Build 0)  -->
<svg version="1.1" id="Layer_1" xmlns="http://www.w3.org/2000/svg" xmlns:xlink="http://www.w3.org/1999/xlink" x="0px" y="0px"
	 viewBox="0 0 32 32" style="enable-background:new 0 0 32 32;" xml:space="preserve">
<style type="text/css">
	.st0{fill:#71ABFF;}
</style>
<g>
	<g id="XMLID_307_">
		<path class="st0" d="M20.4,22.9h-8.8c-1.38,0-2.5-1.12-2.5-2.5v-8.8c0-1.38,1.12-2.5,2.5-2.5h5.2c0.28,0,0.5,0.22,0.5,0.5
			s-0.22,0.5-0.5,0.5h-5.2c-0.83,0-1.5,0.67-1.5,1.5v8.8c0,0.83,0.67,1.5,1.5,1.5h8.8c0.83,0,1.5-0.67,1.5-1.5v-5.2
			c0-0.28,0.22-0.5,0.5-0.5s0.5,0.22,0.5,0.5v5.2C22.9,21.78,21.78,22.9,20.4,22.9z"/>
		<g id="XMLID_308_">
			<path class="st0" d="M14.85,17.65c-0.13,0-0.26-0.05-0.35-0.15c-0.11-0.11-0.16-0.27-0.14-0.42l0.23-1.62
				c0.02-0.11,0.06-0.21,0.14-0.28l5.86-5.86c0.28-0.28,0.78-0.28,1.06,0l0.52,0.52l0,0l0.52,0.52c0.29,0.29,0.29,0.77,0,1.06
				l-5.86,5.86c-0.08,0.08-0.18,0.13-0.28,0.14l-1.62,0.23C14.89,17.65,14.87,17.65,14.85,17.65z M15.55,15.76l-0.11,0.8l0.8-0.11
				l5.56-5.56l-0.68-0.68L15.55,15.76z M20.94,10.03C20.94,10.03,20.94,10.03,20.94,10.03L20.94,10.03z M21.29,10.03L21.29,10.03
				C21.29,10.03,21.29,10.03,21.29,10.03z"/>
			<path class="st0" d="M20.98,12.91c-0.13,0-0.26-0.05-0.35-0.15l-1.39-1.39c-0.2-0.2-0.2-0.51,0-0.71s0.51-0.2,0.71,0l1.39,1.39
				c0.2,0.2,0.2,0.51,0,0.71C21.24,12.86,21.11,12.91,20.98,12.91z"/>
		</g>
	</g>
	<path class="st0" d="M16,1c8.27,0,15,6.73,15,15s-6.73,15-15,15S1,24.27,1,16S7.73,1,16,1 M16,0C7.16,0,0,7.16,0,16
		c0,8.84,7.16,16,16,16s16-7.16,16-16C32,7.16,24.84,0,16,0L16,0z"/>
</g>
</svg>
