<?xml version="1.0" encoding="utf-8"?>
<!-- Generator: Adobe Illustrator 23.0.6, SVG Export Plug-In . SVG Version: 6.00 Build 0)  -->
<svg version="1.1" id="Layer_1" xmlns="http://www.w3.org/2000/svg" xmlns:xlink="http://www.w3.org/1999/xlink" x="0px" y="0px"
	 viewBox="0 0 160 160" style="enable-background:new 0 0 160 160;" xml:space="preserve">
<style type="text/css">
	.st0{fill:#FFFFFF;}
	.st1{fill:none;stroke:#F25366;stroke-width:4;stroke-linecap:round;stroke-linejoin:round;stroke-miterlimit:10;}
	.st2{fill:#F25366;}
</style>
<g>
	<path fill="#FFFFFF" d="M120,160c22.09,0,40-17.91,40-40V80c0-44.18-35.82-80-80-80S0,35.82,0,80v0c0,44.18,35.82,80,80,80H120
		L120,160z"/>
	<g>
		<g>
			<line fill="none" stroke="#F25366" stroke-width="4" stroke-linecap="round" stroke-linejoin="round" stroke-miterlimit="10" x1="101.82" y1="58.18" x2="58.18" y2="101.82"/>
			<line fill="none" stroke="#F25366" stroke-width="4" stroke-linecap="round" stroke-linejoin="round" stroke-miterlimit="10" x1="58.18" y1="58.18" x2="101.82" y2="101.82"/>
		</g>
		<g>
			<g>
				<path fill="#F25366" d="M80,4c41.91,0,76,34.09,76,76v40c0,19.85-16.15,36-36,36H80c-41.91,0-76-34.09-76-76C4,38.09,38.09,4,80,4
					 M80,0L80,0C35.82,0,0,35.82,0,80v0c0,44.18,35.82,80,80,80h40c22.09,0,40-17.91,40-40V80C160,35.82,124.18,0,80,0L80,0z"/>
			</g>
		</g>
	</g>
</g>
</svg>
