<?xml version="1.0" encoding="utf-8"?>
<!-- Generator: Adobe Illustrator 23.0.6, SVG Export Plug-In . SVG Version: 6.00 Build 0)  -->
<svg version="1.1" id="Layer_1" xmlns="http://www.w3.org/2000/svg" xmlns:xlink="http://www.w3.org/1999/xlink" x="0px" y="0px"
	 viewBox="0 0 30 30" style="enable-background:new 0 0 30 30;" xml:space="preserve">
<style type="text/css">
	.st0{fill:none;stroke:#FFFFFF;stroke-width:0.7;stroke-linecap:round;stroke-linejoin:round;stroke-miterlimit:10;}
	.st1{fill:#FFFFFF;}
</style>
<g>
	<g>
		<path class="st0" d="M4.28,16.32h2.06l2.56-1.18c0.61-0.28,1.27-0.43,1.94-0.43h0c0.65,0,1.29,0.14,1.88,0.4l6.84,3.03
			c0.59,0.26,0.81,1,0.45,1.54l0,0c-0.24,0.36-0.68,0.54-1.1,0.44l-6.59-1.48l3.83,2.58c1.27,0.86,2.86,1.1,4.33,0.66l6.56-1.98
			c0.59-0.17,1.21,0.14,1.42,0.71v0c0.23,0.61-0.09,1.28-0.69,1.5l-9.08,3.41c-1,0.36-2.11,0.32-3.08-0.11L7.34,21.7H4.28"/>
		<path class="st0" d="M2.5,23.44H2.9c0.77,0,1.39-0.62,1.39-1.39v-6.1c0-0.77-0.62-1.39-1.39-1.39H2.5c-0.77,0-1.39,0.62-1.39,1.39
			v6.1C1.12,22.82,1.74,23.44,2.5,23.44z"/>
	</g>
	<g>
		<g>
			<path class="st1" d="M11.46,7.48c0-3.12,2.57-5.7,5.7-5.7c3.12,0,5.7,2.58,5.7,5.7s-2.58,5.7-5.7,5.7
				C14.04,13.18,11.46,10.6,11.46,7.48z M17.47,11.25v-0.5c1.21-0.1,2.08-0.79,2.08-1.89c0-0.98-0.64-1.51-1.9-1.8l-0.18-0.04V5.14
				c0.5,0.08,0.85,0.37,0.99,0.82c0.1,0.24,0.26,0.37,0.5,0.37c0.28,0,0.47-0.18,0.47-0.45c0-0.08-0.02-0.17-0.04-0.24
				c-0.19-0.75-0.93-1.3-1.92-1.39V3.75c0-0.19-0.14-0.32-0.32-0.32c-0.18,0-0.31,0.13-0.31,0.32v0.49c-1.15,0.1-1.99,0.8-1.99,1.82
				c0,0.94,0.63,1.49,1.85,1.77l0.14,0.03v1.98c-0.62-0.08-1-0.42-1.11-0.88c-0.09-0.25-0.25-0.37-0.5-0.37
				c-0.29,0-0.48,0.19-0.48,0.47c0,0.08,0.01,0.17,0.04,0.26c0.2,0.77,0.98,1.33,2.04,1.42v0.51c0,0.19,0.13,0.32,0.31,0.32
				C17.33,11.56,17.47,11.43,17.47,11.25z M16.78,6.85c-0.62-0.16-0.9-0.44-0.9-0.85c0-0.43,0.38-0.78,0.96-0.86v1.72L16.78,6.85z
				 M17.55,8.04c0.72,0.2,0.99,0.45,0.99,0.9c0,0.48-0.37,0.84-1.06,0.91V8.01L17.55,8.04z"/>
		</g>
	</g>
</g>
</svg>
