<?xml version="1.0" encoding="utf-8"?>
<!-- Generator: Adobe Illustrator 23.0.6, SVG Export Plug-In . SVG Version: 6.00 Build 0)  -->
<svg version="1.1" id="Layer_1" xmlns="http://www.w3.org/2000/svg" xmlns:xlink="http://www.w3.org/1999/xlink" x="0px" y="0px"
	 viewBox="0 0 30 30" style="enable-background:new 0 0 30 30;" xml:space="preserve">
<style type="text/css">
	.st0{fill:none;stroke:#FFFFFF;stroke-width:0.7;stroke-linecap:round;stroke-linejoin:round;stroke-miterlimit:10;}
</style>
<g>
	<path id="XMLID_20_" class="st0" d="M19.34,3v3c0,0.99,0.81,1.8,1.8,1.8h3L19.34,3z"/>
	<path id="XMLID_19_" class="st0" d="M19.34,3H7.66c-0.99,0-1.8,0.81-1.8,1.8v20.4c0,0.99,0.81,1.8,1.8,1.8h14.69
		c0.99,0,1.8-0.81,1.8-1.8V7.8L19.34,3z"/>
	<polyline class="st0" points="21.43,11.11 16.55,15.54 12.41,12.92 8.86,16.14 	"/>
	<g>
		<line class="st0" x1="12.66" y1="24" x2="12.66" y2="18.86"/>
		<line class="st0" x1="15.14" y1="24" x2="15.14" y2="21.14"/>
		<line class="st0" x1="10.17" y1="24" x2="10.17" y2="21.14"/>
		<line class="st0" x1="20.12" y1="24" x2="20.12" y2="21.14"/>
		<line class="st0" x1="17.63" y1="24" x2="17.63" y2="18.86"/>
	</g>
	<line class="st0" x1="8.86" y1="24" x2="21.43" y2="24"/>
	<g>
		<line class="st0" x1="8.71" y1="7.8" x2="14.71" y2="7.8"/>
		<line class="st0" x1="8.71" y1="5.43" x2="11.71" y2="5.43"/>
	</g>
</g>
</svg>
