<?xml version="1.0" encoding="utf-8"?>
<!-- Generator: Adobe Illustrator 23.0.6, SVG Export Plug-In . SVG Version: 6.00 Build 0)  -->
<svg version="1.1" id="Layer_1" xmlns="http://www.w3.org/2000/svg" xmlns:xlink="http://www.w3.org/1999/xlink" x="0px" y="0px"
	 viewBox="0 0 20 20" style="enable-background:new 0 0 20 20;" xml:space="preserve">
<style type="text/css">
	.st0{fill:#CCCCCC;}
</style>
<path class="st0" d="M10.7,10.5l5.6-5.6c0.2-0.2,0.2-0.5,0-0.7s-0.5-0.2-0.7,0L10,9.8L4.4,4.1C4.2,4,3.8,4,3.6,4.1
	c-0.2,0.2-0.2,0.5,0,0.7l5.6,5.6L3.6,16c-0.2,0.2-0.2,0.5,0,0.7C3.7,17,3.9,17,4,17s0.3,0,0.4-0.1l5.6-5.6l5.6,5.6
	C15.7,17,15.9,17,16,17s0.3,0,0.4-0.1c0.2-0.2,0.2-0.5,0-0.7L10.7,10.5L10.7,10.5z"/>
</svg>
