<?xml version="1.0" encoding="utf-8"?>
<!-- Generator: Adobe Illustrator 23.0.6, SVG Export Plug-In . SVG Version: 6.00 Build 0)  -->
<svg version="1.1" id="Layer_1" xmlns="http://www.w3.org/2000/svg" xmlns:xlink="http://www.w3.org/1999/xlink" x="0px" y="0px"
	 viewBox="0 0 48 48" style="enable-background:new 0 0 48 48;" xml:space="preserve">
<style type="text/css">
	.st0{fill:#AAAAAA;}
</style>
<path class="st0" d="M20,0C9,0,0,9,0,20s9,20,20,20c4.8,0,9.2-1.7,12.6-4.5l11.9,11.9c0.8,0.8,2,0.8,2.8,0.1s0.8-2,0.1-2.8
	c0,0,0,0-0.1-0.1L35.5,32.6C38.3,29.2,40,24.8,40,20C40,9,31,0,20,0z M20,4c8.9,0,16,7.1,16,16s-7.1,16-16,16S4,28.9,4,20
	S11.1,4,20,4z"/>
</svg>
