<?xml version="1.0" encoding="utf-8"?>
<!-- Generator: Adobe Illustrator 23.0.6, SVG Export Plug-In . SVG Version: 6.00 Build 0)  -->
<svg version="1.1" id="Layer_1" xmlns="http://www.w3.org/2000/svg" xmlns:xlink="http://www.w3.org/1999/xlink" x="0px" y="0px"
	 viewBox="0 0 32 32" style="enable-background:new 0 0 32 32;" xml:space="preserve">
<style type="text/css">
	.st0{fill:#71ABFF;}
	.st1{fill:#407BFE;}
</style>
<g>
	<path class="st0" d="M19.98,17.31c0,0,0-0.43,0-1.61c2.72-0.96,4.53-2.49,5.57-3.59c0.7-0.74,0.67-1.89-0.05-2.6
		c-0.01-0.01-0.02-0.02-0.03-0.03c-0.68-0.66-1.77-0.71-2.48-0.07c-2.49,2.22-5.59,3.09-6.98,3.09s-4.49-0.87-6.98-3.09
		c-0.71-0.63-1.8-0.59-2.48,0.07C6.53,9.48,6.52,9.49,6.5,9.51c-0.73,0.71-0.75,1.86-0.05,2.6c1.04,1.1,2.85,2.63,5.57,3.59
		c0,1.18,0,1.61,0,1.61H19.98z"/>
	<path class="st0" d="M14.52,21.37l-3.22-2.76l-2.51,3.36c-0.42,0.56-0.41,1.34,0.03,1.89l2.72,3.42c0.69,0.87,1.98,0.98,2.8,0.24
		l0,0c0.75-0.68,0.86-1.82,0.24-2.62l-1.15-1.49c-0.22-0.29-0.2-0.7,0.06-0.96L14.52,21.37z"/>
	<path class="st0" d="M17.48,21.37l3.22-2.76l2.51,3.36c0.42,0.56,0.41,1.34-0.03,1.89l-2.72,3.42c-0.69,0.87-1.98,0.98-2.8,0.24
		l0,0c-0.75-0.68-0.86-1.82-0.24-2.62l1.15-1.49c0.22-0.29,0.2-0.7-0.06-0.96L17.48,21.37z"/>
	<path class="st1" d="M16,11.07c-1.95,0-3.54-1.58-3.54-3.53S14.05,4,16,4c1.95,0,3.54,1.59,3.54,3.53S17.95,11.07,16,11.07z"/>
</g>
</svg>
