<?xml version="1.0" encoding="utf-8"?>
<!-- Generator: Adobe Illustrator 23.0.6, SVG Export Plug-In . SVG Version: 6.00 Build 0)  -->
<svg version="1.1" id="Layer_1" xmlns="http://www.w3.org/2000/svg" xmlns:xlink="http://www.w3.org/1999/xlink" x="0px" y="0px"
	 viewBox="0 0 24 24" style="enable-background:new 0 0 24 24;" xml:space="preserve">
<style type="text/css">
	.st0{fill:#71ABFF;}
</style>
<g>
	<path class="st0" d="M20.72,9.03c0,3.63-1.26,4.64-8.07,14.52c-0.45,0.65-1.4,0.65-1.85,0C3.98,13.67,2.72,12.65,2.72,9.03
		c0-4.97,4.03-9,9-9S20.72,4.05,20.72,9.03z M19.22,9.03c0-2-0.78-3.89-2.2-5.3c-1.42-1.42-3.3-2.2-5.3-2.2s-3.89,0.78-5.3,2.2
		c-1.42,1.42-2.2,3.3-2.2,5.3c0,3.02,0.97,3.77,7.5,13.22C18.25,12.8,19.22,12.05,19.22,9.03z M16.22,9.03c0,2.48-2.02,4.5-4.5,4.5
		c-2.48,0-4.5-2.02-4.5-4.5c0-2.48,2.02-4.5,4.5-4.5C14.2,4.53,16.22,6.54,16.22,9.03z M14.72,9.03c0-1.65-1.35-3-3-3s-3,1.35-3,3
		s1.35,3,3,3S14.72,10.68,14.72,9.03z"/>
</g>
</svg>
