<?xml version="1.0" encoding="utf-8"?>
<!-- Generator: Adobe Illustrator 23.0.6, SVG Export Plug-In . SVG Version: 6.00 Build 0)  -->
<svg version="1.1" id="Layer_1" xmlns="http://www.w3.org/2000/svg" xmlns:xlink="http://www.w3.org/1999/xlink" x="0px" y="0px"
	 viewBox="0 0 24 24" style="enable-background:new 0 0 24 24;" xml:space="preserve">
<style type="text/css">
	.st0{fill:#71ABFF;}
</style>
<g>
	<path class="st0" d="M12,8.64c-0.27,0-0.48-0.21-0.48-0.48V0.48C11.52,0.21,11.73,0,12,0s0.48,0.21,0.48,0.48v7.68
		C12.48,8.43,12.27,8.64,12,8.64z"/>
	<path class="st0" d="M12,24C5.91,24,0.96,19.05,0.96,12.96c0-4.39,2.6-8.36,6.62-10.11c0.25-0.11,0.53,0.01,0.63,0.25
		c0.11,0.24,0,0.53-0.25,0.63c-3.67,1.61-6.05,5.23-6.05,9.24c0,5.56,4.52,10.08,10.08,10.08s10.08-4.52,10.08-10.08
		c0-4-2.37-7.63-6.05-9.24c-0.24-0.11-0.35-0.39-0.25-0.63c0.11-0.24,0.39-0.35,0.63-0.25c4.02,1.76,6.62,5.73,6.62,10.11
		C23.04,19.05,18.09,24,12,24z"/>
</g>
</svg>
