<?xml version="1.0" encoding="utf-8"?>
<!-- Generator: Adobe Illustrator 23.0.6, SVG Export Plug-In . SVG Version: 6.00 Build 0)  -->
<svg version="1.1" id="Layer_1" xmlns="http://www.w3.org/2000/svg" xmlns:xlink="http://www.w3.org/1999/xlink" x="0px" y="0px"
	 viewBox="0 0 160 77" style="enable-background:new 0 0 160 77;" xml:space="preserve">
<style type="text/css">
	.st0{fill:#FFFFFF;}
	.st1{fill:#E6252B;}
</style>
<rect x="80" y="5.6" class="st0" width="74.6" height="40.8"/>
<path class="st0" d="M19,46.4c-4.7,0-9.5,0-14.2,0c-2.5,0-4.6-2-4.7-4.4c0-0.2,0-0.4,0-0.7c0-12,0-24,0-36c0-2.5,1.4-4.4,3.7-5
	c0.6-0.2,1.2-0.2,1.8-0.2c9.2,0,18.4,0,27.6,0c2.2,0,3.5,1.3,3.5,3.5c0,1.6,0,3.2,0,4.8c0,2-1.3,3.4-3.4,3.4c-5.3,0-10.5,0-15.8,0
	c-1.5,0-3,0-4.5,0c-0.9,0-1.4,0.4-1.4,1.4c0,0.9,0,1.9,0,2.8c0,1,0.4,1.5,1.5,1.5c5.4,0,10.9,0,16.3,0c2.3,0,3.6,1.3,3.6,3.6
	c0,1.5,0,3,0,4.5c0,2.2-1.3,3.5-3.5,3.5c-5.4,0-10.8,0-16.2,0c-1.3,0-1.7,0.4-1.7,1.7c0,0.9,0,1.8,0,2.7c0,0.9,0.4,1.3,1.4,1.3
	c6.7,0,13.4,0,20.1,0c1.8,0,3.1,0.8,3.5,2.4c0.1,0.3,0.1,0.7,0.1,1c0,1.6,0,3.3,0,4.9c0,2-1.3,3.3-3.4,3.3
	C28.5,46.4,23.7,46.4,19,46.4C19,46.4,19,46.4,19,46.4z"/>
<path class="st0" d="M37,22.6C37.1,13,43.9,4,53.7,1.2c4.5-1.3,8.9-1.2,13.4,0c2.6,0.7,4,2.3,4.3,4.9c0.3,2.1,0.8,4.2,1.2,6.3
	c0.1,0.4,0.1,0.7,0,1.1c-0.3,0.8-1.1,1-1.9,0.5c-1.6-0.9-3.2-1.7-5-2.1c-6.7-1.5-13.5,3.1-14.6,9.8C50.3,27,53.7,32.5,59,34.3
	c4.1,1.4,7.8,0.5,11.4-1.5c0.4-0.2,0.8-0.6,1.3-0.4c0.8,0.2,1.1,0.8,0.9,1.7c-0.2,1.3-0.5,2.6-0.8,3.9c-0.2,1.2-0.4,2.3-0.7,3.5
	c-0.3,1.7-1.4,2.8-3,3.4c-10.2,3.8-22.2-0.5-27.9-9.8C38.1,31.5,37,27.5,37,22.6z"/>
<g>
	<path class="st1" d="M123.1,29c-0.8-0.5-1.8-0.8-3.2-0.8c-1.2,0-2.1,0.3-2.8,0.8c-0.7,0.5-1,1.3-1,2.2c0,1,0.3,1.7,1,2.2
		c0.7,0.5,1.6,0.8,2.8,0.8c1.4,0,2.4-0.3,3.2-0.8c0.8-0.5,1.2-1.2,1.2-2.2C124.2,30.3,123.8,29.5,123.1,29z"/>
	<path class="st1" d="M98.9,13.6h-8.5v9.2h8.5c1.4,0,2.5-0.4,3.3-1.2c0.8-0.8,1.2-2,1.2-3.5c0-1.5-0.4-2.6-1.2-3.4
		C101.4,14,100.3,13.6,98.9,13.6z"/>
	<path class="st1" d="M159.9,4.1c-0.5-2.5-2.5-4-5.1-4c-25.7,0-51.4,0-77.1,0c-0.3,0-0.5,0-0.8,0c-1.4,0.2-2.4,1.5-2.1,2.9
		c0.4,2,0.8,3.9,1.2,5.9c0.3,1.7,0.8,3.4,0.7,5.2c-0.2,3.1-2.9,5.3-5.9,4.8c-1-0.2-1.8-0.7-2.5-1.4c-1.7-1.5-3.8-2.1-6-1.7
		c-3.8,0.6-7.1,4.3-5.8,9.4c1.3,5.3,7.9,7.3,11.9,3.5c2.9-2.7,7.5-0.9,8.2,2.5c0.2,1.1,0.3,2.1,0.1,3.2c-0.5,2.4-1,4.8-1.5,7.3
		c-0.2,0.7-0.4,1.5-0.4,2.2c0.1,1.3,1.1,2.5,2.9,2.5c12.9,0,25.8,0,38.8,0c5.9,0,11.9,0,17.9,0c1.8-3.9,3.7-7.9,3.8-8.2l0.6-1.5
		l-8.2-20c0.2-0.1,0.6-0.3,1.1-0.3c0.6-0.1,1-0.1,1.4-0.1c0.9,0,1.7,0.2,2.4,0.5c0.8,0.4,1.3,0.9,1.5,1.6l4.2,11.1l0.3,0.7l4.6-11.8
		c0.3-0.7,0.8-1.2,1.5-1.6s1.5-0.5,2.4-0.5c0.4,0,0.8,0,1.4,0.1c0.6,0.1,0.9,0.2,1.1,0.3L143,39.9c-0.2,0.4-1.5,3.2-3,6.5
		c4.9,0,9.7,0,14.6,0c0.3,0,0.6,0,1,0c2.5-0.2,4.5-2.2,4.5-4.8c0-12.2,0-24.4,0-36.5C160,4.7,160,4.4,159.9,4.1z M108.3,23.5
		c-0.9,1.5-2.1,2.7-3.7,3.5c-1.6,0.8-3.5,1.2-5.7,1.2h-8.5v5.6c0,1.5-0.5,2.6-1.6,3.4s-2.6,1.2-4.7,1.2V11c0-0.8,0.3-1.5,0.9-2.1
		s1.4-0.8,2.2-0.8h11.6c2.1,0,4,0.4,5.6,1.3c1.6,0.8,2.9,2,3.8,3.5c0.9,1.5,1.3,3.3,1.3,5.2C109.6,20.2,109.2,22,108.3,23.5z
		 M129.9,34.6c0,1.3-0.4,2.3-1.3,2.9c-0.8,0.6-2.1,0.8-3.8,0.9v0h-0.7v-1.9c-0.6,0.5-1.2,0.8-1.8,1.2c-1,0.5-2.4,0.8-4.1,0.8
		c-1.4,0-2.7-0.3-3.9-0.8c-1.2-0.5-2.2-1.4-2.9-2.4s-1.1-2.3-1.1-3.9c0-1.5,0.4-2.8,1.2-3.9c0.8-1.1,1.9-1.9,3.2-2.5
		c1.3-0.6,2.8-0.9,4.3-0.9c1.3,0,2.5,0.2,3.5,0.6c0.6,0.2,1.1,0.5,1.6,0.9V25v-0.6c0-1.1-0.4-1.9-1.2-2.6s-1.9-1-3.3-1
		c-1.2,0-2.4,0.2-3.3,0.7c-0.6,0.3-1.1,0.6-1.6,1.1c-0.7,0.7-1.8,0.7-2.5,0l0,0c-0.5-0.5-0.7-1-0.7-1.6c0-0.9,0.4-1.7,1.2-2.4
		c0.8-0.7,1.8-1.3,3.1-1.7c1.3-0.4,2.8-0.6,4.4-0.6c3.1,0,5.5,0.7,7.2,2.1c1.7,1.4,2.5,3.4,2.5,5.8L129.9,34.6L129.9,34.6z"/>
</g>
<g>
	<path class="st0" d="M74.6,71.9v-7.1h-1.8v-3.7h1.8v-6.9h6.9c5.5,0,7.9,3.3,7.9,8.7c0,5.5-2.5,8.9-7.9,8.9L74.6,71.9L74.6,71.9z
		 M80.8,68.5c2.5,0,4.3-1.1,4.3-5.4c0-3.1-0.9-5.5-4.3-5.5h-2v3.6h3v3.7h-3v3.6L80.8,68.5L80.8,68.5z"/>
	<path class="st0" d="M93.6,71.9l5.7-17.6h5.2l5.6,17.6h-4.5l-1.1-4h-5.4l-1.2,4H93.6z M101.6,58.2l-1.9,6.7h3.9l-1.8-6.7H101.6z
		 M101.8,73.5c0.9,0,1.7,0.8,1.7,1.7c0,0.9-0.7,1.7-1.7,1.7c-0.9,0-1.7-0.8-1.7-1.7C100.1,74.3,100.9,73.5,101.8,73.5z"/>
	<path class="st0" d="M115,71.9V54.3h4.3v17.6L115,71.9L115,71.9z"/>
	<path class="st0" d="M142.3,71.9h-11.3V54.3h4.3v14h7.1V71.9z"/>
	<path class="st0" d="M149.9,71.9v-6.1L144,54.3h4.7l3.3,7.2h0.1l3.4-7.2h4.5l-5.9,11.3v6.2C154.1,71.9,149.9,71.9,149.9,71.9z
		 M150.4,52.6l2.8-3.9h3.4l-3.4,3.9H150.4z"/>
</g>
</svg>
