<?xml version="1.0" encoding="utf-8"?>
<!-- Generator: Adobe Illustrator 23.0.6, SVG Export Plug-In . SVG Version: 6.00 Build 0)  -->
<svg version="1.1" id="Layer_1" xmlns="http://www.w3.org/2000/svg" xmlns:xlink="http://www.w3.org/1999/xlink" x="0px" y="0px"
	 viewBox="0 0 100 90" style="enable-background:new 0 0 100 90;" xml:space="preserve">
<style type="text/css">
	.st0{fill:#71ABFF;}
	.st1{fill:#407BFD;}
	.st2{fill:#99C7FF;}
</style>
<g>
	<path class="st0" d="M55,2c23.71,0,43,19.29,43,43c0,23.71-19.29,43-43,43H45C21.29,88,2,68.71,2,45C2,21.29,21.29,2,45,2H55 M55,0
		H45C20.15,0,0,20.15,0,45v0c0,24.85,20.15,45,45,45h10c24.85,0,45-20.15,45-45v0C100,20.15,79.85,0,55,0L55,0z"/>
	<g>
		<path class="st1" d="M67.28,54.32l4.37-4.37c0.79-0.79,0.79-2.08,0-2.87l-1.18-1.18c-0.79-0.79-2.08-0.79-2.87,0l-2.19,2.19
			L67.28,54.32z"/>
		<path class="st1" d="M46.91,29.61l2.2-2.2c0.79-0.79,0.79-2.08,0-2.87l-1.18-1.18c-0.79-0.79-2.08-0.79-2.87,0l-4.39,4.39
			L46.91,29.61z"/>
		<g>
			<path class="st2" d="M43.94,43.46l-16-9.21c-0.71-0.4-1.19-1.09-1.3-1.9c-0.11-0.81,0.15-1.61,0.74-2.19l4.61-4.61
				c0.62-0.62,1.67-0.9,2.52-0.67L56.1,31.3L43.94,43.46z M33.89,26.78c-0.15,0-0.4,0.08-0.49,0.17l-4.61,4.61
				c-0.18,0.18-0.18,0.39-0.17,0.5c0.01,0.11,0.07,0.31,0.3,0.44l0.01,0.01l14.68,8.45l8.7-8.7l-18.35-5.47
				C33.94,26.79,33.92,26.78,33.89,26.78z"/>
			<path class="st2" d="M63.03,68.38c-0.12,0-0.25-0.01-0.37-0.03c-0.81-0.11-1.51-0.59-1.91-1.31l-9.2-15.99L63.7,38.9l6.43,21.57
				c0.25,0.92-0.01,1.88-0.66,2.54l-4.61,4.61C64.36,68.11,63.71,68.38,63.03,68.38z M54.04,51.39l8.45,14.67
				c0.13,0.24,0.33,0.3,0.44,0.31c0.11,0.01,0.32,0.01,0.5-0.17l4.61-4.61c0.15-0.15,0.21-0.37,0.15-0.58l-5.46-18.33L54.04,51.39z"
				/>
		</g>
		<g>
			<path class="st1" d="M42.38,71c-0.11,0-0.22-0.01-0.32-0.02c-0.8-0.1-1.49-0.55-1.91-1.24l-0.11-0.25l-3.12-11.4l-11.65-3.23
				c-0.69-0.41-1.14-1.11-1.24-1.91c-0.1-0.8,0.17-1.58,0.74-2.15l2.82-2.82c0.57-0.57,1.39-0.85,2.2-0.73l6.6,0.94l25.56-25.56
				c2.62-2.62,9.62-5.32,12.68-2.25l0,0c3.06,3.06,0.37,10.06-2.25,12.68L46.81,58.62l0.94,6.6c0.11,0.8-0.16,1.63-0.73,2.2
				l-2.82,2.82C43.71,70.73,43.06,71,42.38,71z M41.92,68.8c0.12,0.14,0.28,0.19,0.37,0.2c0.11,0.01,0.31,0.01,0.49-0.17l2.82-2.82
				c0.13-0.13,0.19-0.32,0.17-0.5l-1.08-7.59l26.27-26.27c2.22-2.22,4.18-7.93,2.25-9.85c-1.92-1.92-7.63,0.03-9.85,2.25
				L37.09,50.31l-7.59-1.08c-0.18-0.03-0.37,0.04-0.5,0.17l-2.82,2.82C26,52.39,25.99,52.6,26,52.7c0.01,0.09,0.05,0.25,0.2,0.37
				l12.34,3.38L41.92,68.8z"/>
		</g>
	</g>
</g>
</svg>
