<?xml version="1.0" encoding="utf-8"?>
<!-- Generator: Adobe Illustrator 23.0.6, SVG Export Plug-In . SVG Version: 6.00 Build 0)  -->
<svg version="1.1" id="Layer_1" xmlns="http://www.w3.org/2000/svg" xmlns:xlink="http://www.w3.org/1999/xlink" x="0px" y="0px"
	 viewBox="0 0 100 90" style="enable-background:new 0 0 100 90;" xml:space="preserve">
<style type="text/css">
	.st0{fill:#71ABFF;}
	.st1{fill:#407BFD;}
	.st2{fill:#99C7FF;}
</style>
<g>
	<path class="st0" d="M55,2c23.71,0,43,19.29,43,43c0,23.71-19.29,43-43,43H45C21.29,88,2,68.71,2,45C2,21.29,21.29,2,45,2H55 M55,0
		H45C20.15,0,0,20.15,0,45v0c0,24.85,20.15,45,45,45h10c24.85,0,45-20.15,45-45v0C100,20.15,79.85,0,55,0L55,0z"/>
	<g>
		<polygon class="st1" points="47.48,57.06 37.44,47.03 40.27,44.2 47.48,51.4 59.73,39.15 62.56,41.98 		"/>
		<path id="XMLID_54_" class="st1" d="M39.2,33L39.2,33c-0.99,0-1.8-0.81-1.8-1.8v-6c0-0.99,0.81-1.8,1.8-1.8h0
			c0.99,0,1.8,0.81,1.8,1.8v6C41,32.19,40.2,33,39.2,33z"/>
		<path id="XMLID_53_" class="st1" d="M60.8,33L60.8,33c-0.99,0-1.8-0.81-1.8-1.8v-6c0-0.99,0.81-1.8,1.8-1.8h0
			c0.99,0,1.8,0.81,1.8,1.8v6C62.6,32.19,61.79,33,60.8,33z"/>
		<rect x="44" y="27.2" class="st2" width="12" height="2"/>
		<path class="st2" d="M70,67.6H29.6c-2.54,0-4.6-2.06-4.6-4.6V31.8c0-2.54,2.06-4.6,4.6-4.6h4.8v2h-4.8c-1.43,0-2.6,1.17-2.6,2.6
			V63c0,1.43,1.17,2.6,2.6,2.6H70c1.65,0,3-1.35,3-3V31.8c0-1.43-1.17-2.6-2.6-2.6h-4.8v-2h4.8c2.54,0,4.6,2.06,4.6,4.6v30.8
			C75,65.36,72.76,67.6,70,67.6z"/>
	</g>
</g>
</svg>
