<?xml version="1.0" encoding="utf-8"?>
<!-- Generator: Adobe Illustrator 23.0.6, SVG Export Plug-In . SVG Version: 6.00 Build 0)  -->
<svg version="1.1" id="Layer_1" xmlns="http://www.w3.org/2000/svg" xmlns:xlink="http://www.w3.org/1999/xlink" x="0px" y="0px"
	 viewBox="0 0 100 90" style="enable-background:new 0 0 100 90;" xml:space="preserve">
<style type="text/css">
	.st0{fill:#71ABFF;}
	.st1{fill:#407BFD;}
	.st2{fill:#99C7FF;}
</style>
<g>
	<path class="st0" d="M55,2c23.71,0,43,19.29,43,43c0,23.71-19.29,43-43,43H45C21.29,88,2,68.71,2,45C2,21.29,21.29,2,45,2H55 M55,0
		H45C20.15,0,0,20.15,0,45v0c0,24.85,20.15,45,45,45h10c24.85,0,45-20.15,45-45v0C100,20.15,79.85,0,55,0L55,0z"/>
	<g>
		<path class="st1" d="M43.49,45h17.82c0.99,0,1.8,0.81,1.8,1.8v0.6c0,5.63-4.57,10.2-10.2,10.2h-1.02c-5.63,0-10.2-4.57-10.2-10.2
			v-0.6C41.69,45.81,42.5,45,43.49,45z M52.4,32.4c-2.9,0-5.25,2.35-5.25,5.25c0,2.9,2.35,5.25,5.25,5.25c2.9,0,5.25-2.35,5.25-5.25
			C57.65,34.75,55.3,32.4,52.4,32.4z"/>
		<path id="XMLID_57_" class="st1" d="M38,55.8L38,55.8c0,0.99-0.81,1.8-1.8,1.8h-6c-0.99,0-1.8-0.81-1.8-1.8v0
			c0-0.99,0.81-1.8,1.8-1.8h6C37.19,54,38,54.8,38,55.8z"/>
		<path id="XMLID_56_" class="st1" d="M38,34.2L38,34.2c0,0.99-0.81,1.8-1.8,1.8h-6c-0.99,0-1.8-0.81-1.8-1.8l0,0
			c0-0.99,0.81-1.8,1.8-1.8h6C37.19,32.4,38,33.21,38,34.2z"/>
		<rect x="32.2" y="39" class="st2" width="2" height="12"/>
		<path class="st2" d="M68,70H36.8c-2.54,0-4.6-2.06-4.6-4.6v-4.8h2v4.8c0,1.43,1.17,2.6,2.6,2.6H68c1.43,0,2.6-1.17,2.6-2.6V25
			c0-1.65-1.35-3-3-3H36.8c-1.43,0-2.6,1.17-2.6,2.6v4.8h-2v-4.8c0-2.54,2.06-4.6,4.6-4.6h30.8c2.76,0,5,2.24,5,5v40.4
			C72.6,67.94,70.54,70,68,70z"/>
	</g>
</g>
</svg>
