<?xml version="1.0" encoding="utf-8"?>
<!-- Generator: Adobe Illustrator 23.0.6, SVG Export Plug-In . SVG Version: 6.00 Build 0)  -->
<svg version="1.1" id="Layer_1" xmlns="http://www.w3.org/2000/svg" xmlns:xlink="http://www.w3.org/1999/xlink" x="0px" y="0px"
	 viewBox="0 0 24 24" style="enable-background:new 0 0 24 24;" xml:space="preserve">
<style type="text/css">
	.st0{fill:#71ABFF;}
</style>
<g>
	<path class="st0" d="M22.5,12.75v9c0,1.24-1.01,2.25-2.25,2.25H3.75c-1.24,0-2.25-1.01-2.25-2.25v-9c0-1.24,1.01-2.25,2.25-2.25
		H4.5v-3c0-4.14,3.37-7.51,7.52-7.5c4.14,0.01,7.48,3.43,7.48,7.57v2.93h0.75C21.49,10.5,22.5,11.51,22.5,12.75z M21,21.75v-9
		c0-0.41-0.34-0.75-0.75-0.75H3.75C3.34,12,3,12.34,3,12.75v9c0,0.41,0.34,0.75,0.75,0.75h16.5C20.66,22.5,21,22.16,21,21.75z
		 M6,10.5h12v-3c0-3.31-2.69-6-6-6s-6,2.69-6,6V10.5z"/>
</g>
</svg>
