<?xml version="1.0" encoding="utf-8"?>
<!-- Generator: Adobe Illustrator 23.0.6, SVG Export Plug-In . SVG Version: 6.00 Build 0)  -->
<svg version="1.1" id="Layer_1" xmlns="http://www.w3.org/2000/svg" xmlns:xlink="http://www.w3.org/1999/xlink" x="0px" y="0px"
	 viewBox="0 0 32 32" style="enable-background:new 0 0 32 32;" xml:space="preserve">
<style type="text/css">
	.st0{fill:url(#SVGID_1_);}
	.st1{fill:#FFFFFF;}
</style>
<g>
	<linearGradient id="SVGID_1_" gradientUnits="userSpaceOnUse" x1="-0.8068" y1="-0.8068" x2="35.3388" y2="35.3388">
		<stop  offset="1.591435e-03" style="stop-color:#71AAFF"/>
		<stop  offset="0.6821" style="stop-color:#1B5CE6"/>
		<stop  offset="1" style="stop-color:#1B1F9E"/>
	</linearGradient>
	<path class="st0" d="M27,32H5c-2.76,0-5-2.24-5-5V5c0-2.76,2.24-5,5-5h22c2.76,0,5,2.24,5,5v22C32,29.76,29.76,32,27,32z"/>
	<path class="st1" d="M23.33,19.56c0-2.75-1.66-4.42-5.04-5.08l-2.53-0.52c-1.7-0.33-2.48-0.98-2.48-1.98c0-1.13,1-2.02,2.59-2.02
		c1.34,0,2.3,0.43,3.44,1.51c0.67,0.58,1.22,0.83,1.94,0.83c0.84,0,1.54-0.62,1.54-1.5c0-0.75-0.4-1.54-1.15-2.25
		c-0.91-0.88-2.32-1.47-3.91-1.74c0,0,0-0.01,0-0.01v-1c0-0.92-0.74-1.66-1.66-1.66l0,0c-0.92,0-1.66,0.74-1.66,1.66v0.97
		c-3.37,0.46-5.52,2.57-5.52,5.55c0,2.73,1.63,4.47,4.88,5.14l2.52,0.55c1.93,0.42,2.69,1,2.69,2.01c0,1.29-1.02,2.13-2.91,2.13
		c-1.35,0-2.67-0.56-3.86-1.65c-0.76-0.64-1.25-0.83-1.83-0.83c-0.95,0-1.71,0.59-1.71,1.63c0,0.8,0.43,1.58,1.18,2.26
		c1.04,0.97,2.69,1.58,4.57,1.79v0.84c0,0.92,0.74,1.66,1.66,1.66l0,0c0.92,0,1.66-0.74,1.66-1.66v-0.9
		C21.19,24.73,23.33,22.59,23.33,19.56z"/>
</g>
</svg>
