<?xml version="1.0" encoding="utf-8"?>
<!-- Generator: Adobe Illustrator 23.0.6, SVG Export Plug-In . SVG Version: 6.00 Build 0)  -->
<svg version="1.1" id="Layer_1" xmlns="http://www.w3.org/2000/svg" xmlns:xlink="http://www.w3.org/1999/xlink" x="0px" y="0px"
	 viewBox="0 0 24 24" style="enable-background:new 0 0 24 24;" xml:space="preserve">
<style type="text/css">
	.st0{fill:#71ABFF;}
</style>
<g>
	<path class="st0" d="M19.5,21.75c0,1.24-1.01,2.25-2.25,2.25H6.75c-1.24,0-2.25-1.01-2.25-2.25V2.25C4.5,1.01,5.51,0,6.75,0h10.5
		c1.24,0,2.25,1.01,2.25,2.25V21.75z M17.25,1.5H6.75C6.34,1.5,6,1.84,6,2.25v19.5c0,0.41,0.34,0.75,0.75,0.75h10.5
		c0.41,0,0.75-0.34,0.75-0.75V2.25C18,1.84,17.66,1.5,17.25,1.5z M12,21c-0.83,0-1.5-0.67-1.5-1.5S11.17,18,12,18
		c0.83,0,1.5,0.67,1.5,1.5S12.83,21,12,21z"/>
</g>
</svg>
