<?xml version="1.0" encoding="utf-8"?>
<!-- Generator: Adobe Illustrator 23.0.6, SVG Export Plug-In . SVG Version: 6.00 Build 0)  -->
<svg version="1.1" id="Layer_1" xmlns="http://www.w3.org/2000/svg" xmlns:xlink="http://www.w3.org/1999/xlink" x="0px" y="0px"
	 viewBox="0 0 511 511" style="enable-background:new 0 0 511 511;" xml:space="preserve">
<style type="text/css">
	.st0{fill:#407AFD;stroke:#407AFD;stroke-miterlimit:10;}
</style>
<g id="surface1">
	<path class="st0" d="M491.4,213.1h-91.5v-67C399.9,66.1,334.8,1,254.8,1c-80,0-145.1,65.1-145.1,145.1v67H17.6
		C7.3,213.1-1,221.4-1,231.7v225.9C-1,487.1,23,511,52.4,511h404.2c29.4,0,53.4-23.9,53.4-53.4V231.7
		C510,221.4,501.7,213.1,491.4,213.1z M139.6,146.1c0-63.5,51.7-115.2,115.2-115.2c63.5,0,115.2,51.7,115.2,115.2v67H139.6V146.1z
		 M480.1,457.6c0,12.9-10.5,23.4-23.4,23.4H52.4c-12.9,0-23.4-10.5-23.4-23.4V243h451.1V457.6z"/>
	<path class="st0" d="M163.9,337.8c-1.3,0-2.4,0.2-3.5,0.7l-25.1,8.5l0.9-24.6c-0.2-3.8-1.4-6.6-3.7-8.5c-2.3-1.9-5.2-2.8-8.6-2.8
		c-3.6,0-6.5,1-8.8,3c-2.3,2-3.6,4.8-3.7,8.4l1.2,24.1l-25.1-8c-1.1-0.5-2.3-0.7-3.6-0.7c-3.7,0-6.8,1.3-9.3,4
		c-2.6,2.7-3.8,5.7-3.8,9c0,6.9,2.7,11,8,12.1l24.6,7.1l-15.6,22.2c-1.9,2.2-2.8,4.7-2.8,7.6c0,3.6,1.7,6.6,5,8.9
		c3.3,2.3,6.7,3.4,10,3.4c3.8,0,6.6-1.4,8.3-4.3l15.7-23.9l15.1,23.7c1.9,3,4.9,4.5,9,4.5c3.6,0,6.9-1.2,9.9-3.7
		c3-2.4,4.5-5.5,4.5-9.1c0-3-0.6-5.3-1.9-6.9L144,368.6l24.1-5.7c5.4-1.1,8-4.6,8-10.4c0-3.6-1.2-7-3.6-10.1
		C170.3,339.4,167.4,337.8,163.9,337.8z"/>
	<path class="st0" d="M294.3,337.8c-1.3,0-2.4,0.2-3.5,0.7l-25.1,8.5l0.9-24.6c-0.2-3.8-1.4-6.6-3.7-8.5c-2.3-1.9-5.2-2.8-8.6-2.8
		c-3.6,0-6.5,1-8.8,3c-2.3,2-3.6,4.8-3.7,8.4l1.2,24.1l-25.1-8c-1.1-0.5-2.3-0.7-3.6-0.7c-3.7,0-6.8,1.3-9.3,4
		c-2.6,2.7-3.8,5.7-3.8,9c0,6.9,2.7,11,8,12.1l24.6,7.1l-15.6,22.2c-1.9,2.2-2.8,4.7-2.8,7.6c0,3.6,1.7,6.6,5,8.9
		c3.3,2.3,6.7,3.4,10,3.4c3.8,0,6.6-1.4,8.3-4.3l15.7-23.9l15.1,23.7c1.9,3,4.9,4.5,9,4.5c3.6,0,6.9-1.2,9.9-3.7
		c3-2.4,4.5-5.5,4.5-9.1c0-3-0.6-5.3-1.9-6.9l-16.6-23.9l24.1-5.7c5.4-1.1,8-4.6,8-10.4c0-3.6-1.2-7-3.6-10.1
		C300.7,339.4,297.8,337.8,294.3,337.8z"/>
	<path class="st0" d="M397.1,322.4c-0.2-3.8-1.4-6.6-3.7-8.5c-2.3-1.9-5.2-2.8-8.6-2.8c-3.6,0-6.5,1-8.8,3c-2.3,2-3.6,4.8-3.7,8.4
		l1.2,24.1l-25.1-8c-1.1-0.5-2.3-0.7-3.6-0.7c-3.7,0-6.8,1.3-9.3,4c-2.6,2.7-3.8,5.7-3.8,9c0,6.9,2.7,11,8,12.1l24.6,7.1l-15.6,22.2
		c-1.9,2.2-2.8,4.7-2.8,7.6c0,3.6,1.7,6.6,5,8.9c3.3,2.3,6.7,3.4,10,3.4c3.8,0,6.6-1.4,8.3-4.3l15.7-23.9l15.1,23.7
		c1.9,3,4.9,4.5,9,4.5c3.6,0,6.9-1.2,9.9-3.7c3-2.4,4.5-5.5,4.5-9.1c0-3-0.6-5.3-1.9-6.9l-16.6-23.9l24.1-5.7c5.4-1.1,8-4.6,8-10.4
		c0-3.6-1.2-7-3.6-10.1c-2.4-3.1-5.3-4.6-8.8-4.6c-1.3,0-2.4,0.2-3.6,0.7l-25.1,8.5L397.1,322.4z"/>
</g>
</svg>
