<?xml version="1.0" encoding="utf-8"?>
<!-- Generator: Adobe Illustrator 23.0.6, SVG Export Plug-In . SVG Version: 6.00 Build 0)  -->
<svg version="1.1" id="Layer_1" xmlns="http://www.w3.org/2000/svg" xmlns:xlink="http://www.w3.org/1999/xlink" x="0px" y="0px"
	 viewBox="0 0 30 30" style="enable-background:new 0 0 30 30;" xml:space="preserve">
<style type="text/css">
	.st0{fill:none;stroke:#FFFFFF;stroke-linecap:round;stroke-linejoin:round;stroke-miterlimit:10;}
</style>
<g id="XMLID_27_">
	<path id="XMLID_29_" class="st0" d="M25.5,12.7c0.4,0.1,0.7,0.2,1,0.5c0.3,0.3,0.5,0.6,0.5,1.1v1.5c0,0.4-0.2,0.7-0.5,1
		s-0.7,0.4-1,0.5l-2,0.5c-0.1,0.2-0.2,0.5-0.2,0.7c-0.1,0.2-0.2,0.4-0.3,0.6l1,1.7c0.2,0.3,0.3,0.7,0.4,1.1s-0.1,0.8-0.4,1L23,24
		c-0.3,0.3-0.7,0.4-1.1,0.4s-0.8-0.1-1.1-0.3L19.1,23c-0.2,0.1-0.4,0.2-0.7,0.3s-0.5,0.2-0.7,0.3l-0.4,2c-0.1,0.4-0.2,0.7-0.5,1
		c-0.3,0.3-0.6,0.5-1.1,0.5h-1.5c-0.4,0-0.7-0.2-1-0.5s-0.4-0.7-0.5-1l-0.5-1.9c-0.2-0.1-0.5-0.2-0.8-0.3S11,23.1,10.8,23l-1.7,1.1
		c-0.3,0.2-0.7,0.3-1.1,0.3c-0.4,0-0.8-0.1-1.1-0.4l-1.1-1c-0.3-0.3-0.4-0.6-0.3-1c0.1-0.4,0.2-0.8,0.3-1.1L6.9,19
		c-0.1-0.2-0.2-0.4-0.3-0.6S6.5,18,6.4,17.8l-1.9-0.5c-0.4-0.1-0.7-0.3-1-0.5S3,16.2,3,15.8v-1.5c0-0.4,0.2-0.8,0.5-1.1
		s0.7-0.5,1-0.5l1.9-0.4c0.1-0.2,0.1-0.4,0.2-0.7s0.2-0.4,0.3-0.6L5.8,9.2C5.6,8.9,5.5,8.5,5.5,8.1c0-0.4,0.1-0.8,0.4-1.1L6.9,6
		C7.2,5.7,7.6,5.6,8,5.6s0.8,0.1,1.1,0.3L10.8,7c0.2-0.1,0.5-0.2,0.7-0.3c0.2-0.1,0.5-0.2,0.7-0.3l0.5-1.9c0.1-0.4,0.2-0.7,0.5-1
		c0.3-0.3,0.6-0.5,1-0.5h1.5c0.4,0,0.8,0.2,1,0.5c0.3,0.3,0.5,0.7,0.5,1l0.4,2c0.2,0.1,0.5,0.2,0.7,0.2c0.2,0.1,0.5,0.2,0.7,0.3
		l1.7-1.1c0.3-0.2,0.7-0.3,1.1-0.3S22.7,5.7,23,6l1,1.1c0.3,0.3,0.4,0.7,0.4,1.1c0,0.4-0.2,0.8-0.4,1.1l-1,1.7
		c0.1,0.2,0.2,0.4,0.3,0.7c0.1,0.2,0.2,0.5,0.2,0.7L25.5,12.7z"/>
	<path id="XMLID_28_" class="st0" d="M15,10.5c1.2,0,2.3,0.4,3.2,1.3c0.9,0.9,1.3,1.9,1.3,3.2s-0.4,2.3-1.3,3.2
		c-0.9,0.9-2,1.3-3.2,1.3c-1.2,0-2.3-0.4-3.2-1.3c-0.9-0.9-1.3-1.9-1.3-3.2s0.4-2.3,1.3-3.2C12.7,10.9,13.8,10.5,15,10.5z"/>
</g>
</svg>
