<?xml version="1.0" encoding="utf-8"?>
<!-- Generator: Adobe Illustrator 23.0.6, SVG Export Plug-In . SVG Version: 6.00 Build 0)  -->
<svg version="1.1" id="Layer_1" xmlns="http://www.w3.org/2000/svg" xmlns:xlink="http://www.w3.org/1999/xlink" x="0px" y="0px"
	 viewBox="0 0 46 46" style="enable-background:new 0 0 46 46;" xml:space="preserve">
<style type="text/css">
	.st0{fill:#29D3AA;}
	.st1{opacity:0.4;fill:url(#SVGID_1_);}
	.st2{fill:#FFFFFF;}
</style>
<g>
	<path class="st0" d="M24.19,44.85h-2.38C9.76,44.85,0,35.09,0,23.04l0-0.08C0,10.91,9.76,1.15,21.81,1.15h2.38
		C36.24,1.15,46,10.91,46,22.96v0.08C46,35.09,36.24,44.85,24.19,44.85z"/>
	<linearGradient id="SVGID_1_" gradientUnits="userSpaceOnUse" x1="3.1988" y1="11.5678" x2="42.8012" y2="34.4322">
		<stop  offset="0" style="stop-color:#FFFFFF"/>
		<stop  offset="1" style="stop-color:#000000"/>
	</linearGradient>
	<path class="st1" d="M24.19,44.85h-2.38C9.76,44.85,0,35.09,0,23.04l0-0.08C0,10.91,9.76,1.15,21.81,1.15h2.38
		C36.24,1.15,46,10.91,46,22.96v0.08C46,35.09,36.24,44.85,24.19,44.85z"/>
	<g>
		<path class="st2" d="M28.63,36.8H17.37c-1.4,0-2.53-1.14-2.53-2.53V11.73c0-1.4,1.14-2.53,2.53-2.53h11.27
			c1.4,0,2.53,1.14,2.53,2.53v3.75h-1.31v-3.75c0-0.67-0.55-1.22-1.22-1.22H17.37c-0.67,0-1.22,0.55-1.22,1.22v22.53
			c0,0.67,0.55,1.22,1.22,1.22h11.27c0.67,0,1.22-0.55,1.22-1.22v-1.25h1.31v1.25C31.17,35.66,30.03,36.8,28.63,36.8z"/>
		<path class="st2" d="M24.25,13.02h-2.5c-0.36,0-0.66-0.29-0.66-0.66s0.29-0.66,0.66-0.66h2.5c0.36,0,0.66,0.29,0.66,0.66
			S24.61,13.02,24.25,13.02z"/>
		<g>
			<path class="st2" d="M36.23,31.17h-12.4c-0.36,0-0.66-0.29-0.66-0.66c0-0.36,0.29-0.66,0.66-0.66h12.4
				c0.62,0,1.13-0.51,1.13-1.13v-8.94c0-0.62-0.51-1.13-1.13-1.13h-12.4c-0.36,0-0.66-0.29-0.66-0.66c0-0.36,0.29-0.66,0.66-0.66
				h12.4c1.35,0,2.45,1.1,2.45,2.45v8.94C38.68,30.07,37.58,31.17,36.23,31.17z"/>
			<path class="st2" d="M23.83,31.17c-0.17,0-0.34-0.06-0.46-0.19l-2.09-2.09c-0.12-0.12-0.19-0.29-0.19-0.46s0.07-0.34,0.19-0.46
				l1.62-1.62l-1.62-1.62c-0.12-0.12-0.19-0.29-0.19-0.46s0.07-0.34,0.19-0.46l1.62-1.62l-1.62-1.62c-0.26-0.26-0.26-0.67,0-0.93
				l2.09-2.09c0.26-0.26,0.67-0.26,0.93,0c0.26,0.26,0.26,0.67,0,0.93l-1.62,1.62l1.62,1.62c0.12,0.12,0.19,0.29,0.19,0.46
				s-0.07,0.34-0.19,0.46l-1.62,1.62l1.62,1.62c0.12,0.12,0.19,0.29,0.19,0.46s-0.07,0.34-0.19,0.46l-1.62,1.62l1.62,1.62
				c0.26,0.26,0.26,0.67,0,0.93C24.17,31.1,24,31.17,23.83,31.17z"/>
		</g>
		<path class="st2" d="M33.01,25.53c0-1.01-0.65-1.55-1.93-1.83l-0.01,0v-1.46c0.24,0.11,0.41,0.29,0.51,0.54
			c0.15,0.29,0.36,0.43,0.66,0.43c0.37,0,0.62-0.23,0.62-0.56c0-0.1-0.03-0.21-0.05-0.3c-0.19-0.64-0.82-1.15-1.74-1.31v-0.27
			c0-0.31-0.25-0.56-0.56-0.56c-0.31,0-0.56,0.25-0.56,0.56v0.26c-1.12,0.16-1.9,0.86-1.9,1.87c0,1,0.66,1.56,1.89,1.84l0.01,0v1.55
			c-0.34-0.11-0.56-0.32-0.65-0.6c-0.13-0.29-0.33-0.44-0.64-0.44c-0.41,0-0.64,0.25-0.64,0.61c0,0.09,0.02,0.2,0.06,0.31
			c0.19,0.63,0.85,1.16,1.88,1.3v0.25c0,0.31,0.25,0.56,0.56,0.56c0.31,0,0.56-0.25,0.56-0.56v-0.26
			C32.23,27.29,33.01,26.6,33.01,25.53z M29.41,22.81c0-0.27,0.21-0.5,0.53-0.6v1.21C29.59,23.29,29.41,23.09,29.41,22.81z
			 M31.07,26.3v-1.27c0.4,0.14,0.58,0.32,0.58,0.63C31.65,25.98,31.44,26.2,31.07,26.3z"/>
	</g>
</g>
</svg>
