<?xml version="1.0" encoding="utf-8"?>
<!-- Generator: Adobe Illustrator 23.0.6, SVG Export Plug-In . SVG Version: 6.00 Build 0)  -->
<svg version="1.1" id="Layer_1" xmlns="http://www.w3.org/2000/svg" xmlns:xlink="http://www.w3.org/1999/xlink" x="0px" y="0px"
	 viewBox="0 0 46 46" style="enable-background:new 0 0 46 46;" xml:space="preserve">
<style type="text/css">
	.st0{fill:#2E15AA;}
	.st1{opacity:0.4;fill:url(#SVGID_1_);}
	.st2{fill:#FFFFFF;}
	.st3{fill:none;stroke:#FFFFFF;stroke-width:1.5;stroke-linecap:round;stroke-linejoin:round;stroke-miterlimit:10;}
</style>
<g>
	<path class="st0" d="M24.19,44.85h-2.38C9.76,44.85,0,35.09,0,23.04l0-0.08C0,10.91,9.76,1.15,21.81,1.15h2.38
		C36.24,1.15,46,10.91,46,22.96v0.08C46,35.09,36.24,44.85,24.19,44.85z"/>
	<linearGradient id="SVGID_1_" gradientUnits="userSpaceOnUse" x1="3.1988" y1="11.5678" x2="42.8012" y2="34.4322">
		<stop  offset="0" style="stop-color:#FFFFFF"/>
		<stop  offset="1" style="stop-color:#000000"/>
	</linearGradient>
	<path class="st1" d="M24.19,44.85h-2.38C9.76,44.85,0,35.09,0,23.04l0-0.08C0,10.91,9.76,1.15,21.81,1.15h2.38
		C36.24,1.15,46,10.91,46,22.96v0.08C46,35.09,36.24,44.85,24.19,44.85z"/>
	<g>
		<path class="st2" d="M19.11,17.88L19.11,17.88c-0.45-0.45-0.45-1.17,0-1.62l1.67-1.67c0.45-0.45,1.17-0.45,1.62,0v0
			c0.45,0.45,0.45,1.17,0,1.62l-1.67,1.67C20.29,18.32,19.56,18.32,19.11,17.88z"/>
		<path class="st2" d="M28.13,26.89L28.13,26.89c-0.45-0.45-0.45-1.17,0-1.62l1.67-1.67c0.45-0.45,1.17-0.45,1.62,0l0,0
			c0.45,0.45,0.45,1.17,0,1.62l-1.67,1.67C29.3,27.34,28.57,27.34,28.13,26.89z"/>
		<path class="st2" d="M20.59,21.8l-6.22-3.45c-0.37-0.21-0.44-0.71-0.14-1.01l1.85-1.85c0.14-0.14,0.42-0.22,0.62-0.16l8.14,2.22
			L20.59,21.8z"/>
		<path class="st2" d="M28.45,21.16l2.22,8.14c0.06,0.22,0,0.46-0.16,0.62l-1.85,1.85c-0.3,0.3-0.8,0.23-1.01-0.14l-3.45-6.22
			L28.45,21.16z"/>
		<g>
			<path class="st3" d="M32.57,13.43c1,1,0.09,3.51-0.9,4.51l-3.22,3.22l-4.25,4.25l-2.9,2.9l0.41,2.84c0.03,0.2-0.04,0.4-0.18,0.54
				l-1.13,1.13c-0.29,0.29-0.78,0.23-1-0.12l-2.16-3.93l-3.93-2.16c-0.36-0.21-0.42-0.7-0.12-1l1.13-1.13
				c0.14-0.14,0.34-0.21,0.54-0.18l2.84,0.41l2.9-2.9l4.25-4.25l3.22-3.22C29.06,13.34,31.57,12.44,32.57,13.43z"/>
		</g>
	</g>
</g>
</svg>
