<?xml version="1.0" encoding="utf-8"?>
<!-- Generator: Adobe Illustrator 23.0.6, SVG Export Plug-In . SVG Version: 6.00 Build 0)  -->
<svg version="1.1" id="Layer_1" xmlns="http://www.w3.org/2000/svg" xmlns:xlink="http://www.w3.org/1999/xlink" x="0px" y="0px"
	 viewBox="0 0 46 46" style="enable-background:new 0 0 46 46;" xml:space="preserve">
<style type="text/css">
	.st0{fill:#194CFA;}
	.st1{opacity:0.4;fill:url(#SVGID_1_);}
	.st2{fill:#FFFFFF;}
	.st3{fill:#C5E5FF;}
</style>
<g>
	<path class="st0" d="M24.19,44.85h-2.38C9.76,44.85,0,35.09,0,23.04l0-0.08C0,10.91,9.76,1.15,21.81,1.15h2.38
		C36.24,1.15,46,10.91,46,22.96v0.08C46,35.09,36.24,44.85,24.19,44.85z"/>
	<linearGradient id="SVGID_1_" gradientUnits="userSpaceOnUse" x1="3.1988" y1="11.5678" x2="42.8012" y2="34.4322">
		<stop  offset="0" style="stop-color:#FFFFFF"/>
		<stop  offset="1" style="stop-color:#000000"/>
	</linearGradient>
	<path class="st1" d="M24.19,44.85h-2.38C9.76,44.85,0,35.09,0,23.04l0-0.08C0,10.91,9.76,1.15,21.81,1.15h2.38
		C36.24,1.15,46,10.91,46,22.96v0.08C46,35.09,36.24,44.85,24.19,44.85z"/>
	<g>
		<path class="st2" d="M23,36.8c-6.16,0-11.17-4.72-11.17-10.51c0-2.23,0.73-4.35,2.11-6.15c0.01-0.01,0.02-0.03,0.03-0.04
			c0.14-0.17,0.26-0.32,0.39-0.47c1.35-1.63,2.72-3.15,3.93-4.49c1.99-2.21,4.05-4.49,4.05-5.27c0-0.36,0.29-0.66,0.66-0.66
			c0.36,0,0.66,0.29,0.66,0.66c0,0.78,2.06,3.06,4.05,5.27c1.21,1.34,2.59,2.87,3.94,4.51c0.12,0.13,0.24,0.28,0.36,0.43
			c0.01,0.01,0.01,0.02,0.02,0.03l0,0c1.4,1.81,2.14,3.95,2.14,6.19C34.17,32.08,29.16,36.8,23,36.8z M15.02,20.88
			c-0.01,0.01-0.01,0.01-0.02,0.02c-1.22,1.58-1.87,3.44-1.87,5.38c0,5.07,4.42,9.2,9.86,9.2s9.86-4.13,9.86-9.2
			c0-1.95-0.64-3.81-1.87-5.38c-0.01-0.01-0.01-0.01-0.02-0.02c-0.11-0.14-0.21-0.27-0.33-0.4c-1.35-1.63-2.71-3.14-3.92-4.48
			c-1.78-1.97-3.03-3.38-3.73-4.46c-0.7,1.08-1.95,2.49-3.73,4.46c-1.2,1.33-2.57,2.85-3.91,4.46
			C15.24,20.61,15.13,20.75,15.02,20.88C15.03,20.88,15.03,20.88,15.02,20.88z"/>
		<path class="st3" d="M25.33,21.75C25.33,21.75,25.33,21.75,25.33,21.75c0,0-0.01-0.01-0.01-0.01c-0.06-0.07-0.11-0.14-0.17-0.21
			c-2.01-2.42-4.07-4.32-4.07-5.1c0,0.78-2.07,2.68-4.07,5.1c-0.06,0.07-0.12,0.14-0.17,0.21c0,0-0.01,0.01-0.01,0.01c0,0,0,0,0,0
			c-0.63,0.81-1,1.81-1,2.89c0,2.72,2.35,4.93,5.26,4.93s5.26-2.21,5.26-4.93C26.34,23.56,25.96,22.56,25.33,21.75z"/>
	</g>
</g>
</svg>
