<?xml version="1.0" encoding="utf-8"?>
<!-- Generator: Adobe Illustrator 23.0.6, SVG Export Plug-In . SVG Version: 6.00 Build 0)  -->
<svg version="1.1" id="Layer_1" xmlns="http://www.w3.org/2000/svg" xmlns:xlink="http://www.w3.org/1999/xlink" x="0px" y="0px"
	 viewBox="0 0 46 46" style="enable-background:new 0 0 46 46;" xml:space="preserve">
<style type="text/css">
	.st0{fill:#EF4162;}
	.st1{opacity:0.4;fill:url(#SVGID_1_);}
	.st2{fill:#FFFFFF;}
</style>
<g>
	<path class="st0" d="M24.19,44.85h-2.38C9.76,44.85,0,35.09,0,23.04l0-0.08C0,10.91,9.76,1.15,21.81,1.15h2.38
		C36.24,1.15,46,10.91,46,22.96v0.08C46,35.09,36.24,44.85,24.19,44.85z"/>
	<linearGradient id="SVGID_1_" gradientUnits="userSpaceOnUse" x1="3.1988" y1="11.5678" x2="42.8012" y2="34.4322">
		<stop  offset="0" style="stop-color:#FFFFFF"/>
		<stop  offset="1" style="stop-color:#000000"/>
	</linearGradient>
	<path class="st1" d="M24.19,44.85h-2.38C9.76,44.85,0,35.09,0,23.04l0-0.08C0,10.91,9.76,1.15,21.81,1.15h2.38
		C36.24,1.15,46,10.91,46,22.96v0.08C46,35.09,36.24,44.85,24.19,44.85z"/>
	<path d="M31.46,30.82h0.74c0.96,0,1.79-0.6,2.13-1.44c-0.74,0.26-1.62,0.28-2.39,0.06C31.84,29.93,31.68,30.39,31.46,30.82z"/>
	<path class="st2" d="M13.12,26.02c-0.38,0-0.69-0.31-0.69-0.69v-4.56c0-0.38,0.31-0.69,0.69-0.69s0.69,0.31,0.69,0.69v4.56
		C13.81,25.71,13.5,26.02,13.12,26.02z"/>
	<path class="st2" d="M13.12,19.55c-0.38,0-0.69-0.31-0.69-0.69c0-0.99,0.81-1.8,1.8-1.8h2.17c0.38,0,0.69,0.31,0.69,0.69
		s-0.31,0.69-0.69,0.69h-2.17c-0.23,0-0.42,0.19-0.42,0.42C13.81,19.24,13.5,19.55,13.12,19.55z"/>
	<path d="M33.04,17.5c0.45,0,0.89,0.08,1.29,0.22c-0.34-0.84-1.17-1.44-2.13-1.44h-0.74c0.22,0.43,0.39,0.89,0.49,1.38
		C32.3,17.56,32.66,17.5,33.04,17.5z"/>
	<path class="st2" d="M32.2,13.98h-8.97l6.89-6.89c0.36-0.36,0.36-0.94,0-1.3c-0.36-0.36-0.94-0.36-1.3,0l-7.17,7.17l-4.47-4.47
		c-0.36-0.36-0.94-0.36-1.3,0c-0.36,0.36-0.36,0.94,0,1.3l4.19,4.19H13.8c-2.54,0-4.6,2.06-4.6,4.6v9.94c0,2.54,2.06,4.6,4.6,4.6
		h18.4c2.54,0,4.6-2.06,4.6-4.6v-9.94C36.8,16.04,34.74,13.98,32.2,13.98z M29.78,18.86v9.38c0,1.88-1.52,3.41-3.41,3.41H14.23
		c-1.88,0-3.41-1.52-3.41-3.41v-9.38c0-1.88,1.52-3.41,3.41-3.41h12.14C28.25,15.46,29.78,16.98,29.78,18.86z M33.04,27.3
		c-0.9,0-1.63-0.73-1.63-1.63c0-0.9,0.73-1.63,1.63-1.63c0.9,0,1.63,0.73,1.63,1.63C34.68,26.57,33.94,27.3,33.04,27.3z
		 M33.04,23.07c-0.9,0-1.63-0.73-1.63-1.63s0.73-1.63,1.63-1.63c0.9,0,1.63,0.73,1.63,1.63S33.94,23.07,33.04,23.07z"/>
</g>
</svg>
