<?xml version="1.0" encoding="utf-8"?>
<!-- Generator: Adobe Illustrator 23.0.6, SVG Export Plug-In . SVG Version: 6.00 Build 0)  -->
<svg version="1.1" id="Layer_1" xmlns="http://www.w3.org/2000/svg" xmlns:xlink="http://www.w3.org/1999/xlink" x="0px" y="0px"
	 viewBox="0 0 46 46" style="enable-background:new 0 0 46 46;" xml:space="preserve">
<style type="text/css">
	.st0{fill:#71ABFF;}
	.st1{opacity:0.4;fill:url(#SVGID_1_);}
	.st2{fill:#FFFFFF;}
</style>
<g>
	<path class="st0" d="M24.19,44.85h-2.38C9.76,44.85,0,35.09,0,23.04l0-0.08C0,10.91,9.76,1.15,21.81,1.15h2.38
		C36.24,1.15,46,10.91,46,22.96v0.08C46,35.09,36.24,44.85,24.19,44.85z"/>
	<linearGradient id="SVGID_1_" gradientUnits="userSpaceOnUse" x1="3.1988" y1="11.5678" x2="42.8012" y2="34.4322">
		<stop  offset="0" style="stop-color:#FFFFFF"/>
		<stop  offset="1" style="stop-color:#000000"/>
	</linearGradient>
	<path class="st1" d="M24.19,44.85h-2.38C9.76,44.85,0,35.09,0,23.04l0-0.08C0,10.91,9.76,1.15,21.81,1.15h2.38
		C36.24,1.15,46,10.91,46,22.96v0.08C46,35.09,36.24,44.85,24.19,44.85z"/>
	<g>
		<path class="st2" d="M23.01,35.42c-0.39,0-0.86-0.13-1.29-0.34c0,0,0,0,0,0c-6.41-3.31-9.5-5.12-9.5-10v-8.49
			c0-2.02,0.96-2.83,2.4-3.44c1.14-0.48,5.65-2.04,6.7-2.31c0.43-0.12,1.07-0.26,1.68-0.26c0.53,0,1.17,0.1,1.72,0.27
			c1,0.32,5.52,1.83,6.67,2.3c1.44,0.62,2.39,1.44,2.39,3.44v8.49c0,4.66-2.75,6.53-9.5,10C23.88,35.29,23.41,35.42,23.01,35.42z
			 M22.58,33.41c0.22,0.11,0.4,0.14,0.43,0.14c0.05,0,0.22-0.03,0.4-0.13c6.79-3.49,8.5-4.83,8.5-8.34v-8.49
			c0-0.98-0.21-1.27-1.24-1.71c-1.02-0.42-5.45-1.9-6.5-2.24c-0.36-0.11-0.81-0.18-1.15-0.18c-0.31,0-0.74,0.07-1.2,0.19
			c-0.96,0.25-5.42,1.79-6.46,2.23c-1.03,0.43-1.25,0.73-1.25,1.71v8.49C14.1,28.56,15.8,29.91,22.58,33.41z"/>
		<path class="st2" d="M23,28.86c-0.41,0-0.83-0.14-1.27-0.42c0,0,0,0,0,0c-3.31-2.1-5.13-4.58-5.13-6.98c0-2.5,1.72-4.32,4.09-4.32
			c0.89,0,1.68,0.27,2.32,0.78c0.65-0.51,1.43-0.78,2.31-0.78c2.37,0,4.09,1.82,4.09,4.32c0,2.4-1.82,4.88-5.13,6.98
			C23.83,28.72,23.41,28.86,23,28.86z M22.73,26.86c0.15,0.1,0.25,0.12,0.28,0.13c0.01,0,0.11-0.03,0.26-0.13
			c2.75-1.74,4.26-3.66,4.26-5.4c0-1.44-0.91-2.44-2.21-2.44c-0.67,0-1.16,0.26-1.55,0.8c-0.18,0.25-0.46,0.39-0.76,0.39
			c0,0,0,0,0,0c-0.3,0-0.59-0.15-0.76-0.4c-0.38-0.54-0.88-0.8-1.55-0.8c-1.3,0-2.21,1-2.21,2.44
			C18.47,23.2,19.98,25.11,22.73,26.86L22.73,26.86z"/>
	</g>
</g>
</svg>
