<?xml version="1.0" encoding="utf-8"?>
<!-- Generator: Adobe Illustrator 23.0.6, SVG Export Plug-In . SVG Version: 6.00 Build 0)  -->
<svg version="1.1" id="Layer_1" xmlns="http://www.w3.org/2000/svg" xmlns:xlink="http://www.w3.org/1999/xlink" x="0px" y="0px"
	 viewBox="0 0 46 46" style="enable-background:new 0 0 46 46;" xml:space="preserve">
<style type="text/css">
	.st0{fill:#26B8E4;}
	.st1{opacity:0.4;fill:url(#SVGID_1_);}
	.st2{fill:#FFFFFF;}
</style>
<g>
	<path class="st0" d="M24.19,44.85h-2.38C9.76,44.85,0,35.09,0,23.04l0-0.08C0,10.91,9.76,1.15,21.81,1.15h2.38
		C36.24,1.15,46,10.91,46,22.96v0.08C46,35.09,36.24,44.85,24.19,44.85z"/>
	<linearGradient id="SVGID_1_" gradientUnits="userSpaceOnUse" x1="3.1988" y1="11.5678" x2="42.8012" y2="34.4322">
		<stop  offset="0" style="stop-color:#FFFFFF"/>
		<stop  offset="1" style="stop-color:#000000"/>
	</linearGradient>
	<path class="st1" d="M24.19,44.85h-2.38C9.76,44.85,0,35.09,0,23.04l0-0.08C0,10.91,9.76,1.15,21.81,1.15h2.38
		C36.24,1.15,46,10.91,46,22.96v0.08C46,35.09,36.24,44.85,24.19,44.85z"/>
	<g>
		<path class="st2" d="M36.8,20.24c0,0.76-0.47,1.4-1.2,1.64l-4.95,1.6l0.63,5.04c0,1.52-3.71,2.76-8.28,2.76s-8.28-1.24-8.28-2.76
			l0.63-5.04l-2.31-0.75c-0.12,0.17-0.22,0.35-0.28,0.55c0.34,0.25,0.58,0.64,0.58,1.09c0,0.55-0.33,1.01-0.79,1.24l0.78,4.82
			c0.07,0.43-0.17,0.84-0.49,0.84h-1.76c-0.32,0-0.56-0.41-0.49-0.84l0.78-4.82c-0.46-0.22-0.79-0.69-0.79-1.24
			c0-0.55,0.32-1.01,0.79-1.23c0.07-0.3,0.17-0.59,0.32-0.85l-1.28-0.41C9.67,21.64,9.2,21,9.2,20.24s0.47-1.4,1.2-1.64l11.43-3.69
			c0.77-0.25,1.57-0.25,2.34,0L35.6,18.6C36.33,18.84,36.8,19.48,36.8,20.24z M35.17,19.91l-11.43-3.7c-0.29-0.09-0.84-0.21-1.49,0
			l-11.43,3.7c-0.32,0.1-0.34,0.54,0,0.65l1.83,0.59c0.41-0.31,0.89-0.54,1.43-0.64l8.79-1.65c0.37-0.07,0.73,0.18,0.8,0.55
			c0.07,0.37-0.18,0.74-0.55,0.81l-8.45,1.58l7.58,2.45c0.49,0.16,1,0.16,1.49,0l11.43-3.7C35.51,20.46,35.49,20.02,35.17,19.91z
			 M29.31,23.91l-5.14,1.66c-1.23,0.4-2.23,0.04-2.34,0l-5.14-1.66l-0.56,4.52c0.46,0.49,2.82,1.47,6.88,1.47s6.41-0.98,6.88-1.47
			L29.31,23.91z"/>
	</g>
</g>
</svg>
