<?xml version="1.0" encoding="utf-8"?>
<!-- Generator: Adobe Illustrator 23.0.6, SVG Export Plug-In . SVG Version: 6.00 Build 0)  -->
<svg version="1.1" id="Layer_1" xmlns="http://www.w3.org/2000/svg" xmlns:xlink="http://www.w3.org/1999/xlink" x="0px" y="0px"
	 viewBox="0 0 46 46" style="enable-background:new 0 0 46 46;" xml:space="preserve">
<style type="text/css">
	.st0{fill:#0C80F3;}
	.st1{opacity:0.4;fill:url(#SVGID_1_);}
	.st2{fill:#FFFFFF;}
	.st3{fill:#F2B140;}
</style>
<g>
	<path class="st0" d="M24.19,44.85h-2.38C9.76,44.85,0,35.09,0,23.04l0-0.08C0,10.91,9.76,1.15,21.81,1.15h2.38
		C36.24,1.15,46,10.91,46,22.96v0.08C46,35.09,36.24,44.85,24.19,44.85z"/>
	<linearGradient id="SVGID_1_" gradientUnits="userSpaceOnUse" x1="3.1988" y1="11.5678" x2="42.8012" y2="34.4322">
		<stop  offset="0" style="stop-color:#FFFFFF"/>
		<stop  offset="1" style="stop-color:#000000"/>
	</linearGradient>
	<path class="st1" d="M24.19,44.85h-2.38C9.76,44.85,0,35.09,0,23.04l0-0.08C0,10.91,9.76,1.15,21.81,1.15h2.38
		C36.24,1.15,46,10.91,46,22.96v0.08C46,35.09,36.24,44.85,24.19,44.85z"/>
	<g>
		<path class="st2" d="M27.71,29.07h-1.35c0-2.4,1.22-3.64,2.41-4.84c1.3-1.32,2.53-2.57,2.53-5.51c0-4.5-3.72-8.16-8.3-8.16
			c-4.58,0-8.3,3.66-8.3,8.16c0,2.94,1.23,4.19,2.53,5.51c1.18,1.2,2.41,2.44,2.41,4.84h-1.35c0-1.85-0.89-2.75-2.02-3.9
			c-1.37-1.39-2.92-2.96-2.92-6.46c0-5.24,4.33-9.51,9.65-9.51c5.32,0,9.65,4.27,9.65,9.51c0,3.49-1.55,5.07-2.92,6.46
			C28.6,26.31,27.71,27.22,27.71,29.07z"/>
		<path class="st2" d="M23,36.8c0.99,0,1.8-0.79,1.8-1.77H21.2C21.2,36.01,22.01,36.8,23,36.8z"/>
		<path class="st3" d="M19.11,19.83l4.99-5.17c0.35-0.36,0.94,0.02,0.75,0.47l-1.38,3.3c-0.09,0.22,0.07,0.46,0.31,0.46h2.68
			c0.49,0,0.75,0.57,0.41,0.92l-4.99,5.17c-0.35,0.36-0.94-0.02-0.75-0.47l1.38-3.3c0.09-0.22-0.07-0.46-0.31-0.46h-2.68
			C19.03,20.75,18.78,20.18,19.11,19.83z"/>
		<path class="st2" d="M27.07,33.75h-8.15c-0.94,0-1.7-0.76-1.7-1.7v-0.01c0-0.94,0.76-1.7,1.7-1.7h8.15c0.94,0,1.7,0.76,1.7,1.7
			v0.01C28.77,32.99,28.01,33.75,27.07,33.75z"/>
	</g>
</g>
</svg>
