<?xml version="1.0" encoding="utf-8"?>
<!-- Generator: Adobe Illustrator 23.0.6, SVG Export Plug-In . SVG Version: 6.00 Build 0)  -->
<svg version="1.1" id="Layer_1" xmlns="http://www.w3.org/2000/svg" xmlns:xlink="http://www.w3.org/1999/xlink" x="0px" y="0px"
	 viewBox="0 0 46 46" style="enable-background:new 0 0 46 46;" xml:space="preserve">
<style type="text/css">
	.st0{fill:#C7B299;}
	.st1{opacity:0.4;fill:url(#SVGID_1_);}
	.st2{fill:#FFFFFF;}
</style>
<g>
	<path class="st0" d="M24.15,44.85h-2.3C9.78,44.85,0,35.07,0,23v0C0,10.93,9.78,1.15,21.85,1.15h2.3C36.22,1.15,46,10.93,46,23v0
		C46,35.07,36.22,44.85,24.15,44.85z"/>
	<linearGradient id="SVGID_1_" gradientUnits="userSpaceOnUse" x1="3.2117" y1="11.5752" x2="42.7883" y2="34.4248">
		<stop  offset="0" style="stop-color:#FFFFFF"/>
		<stop  offset="1" style="stop-color:#000000"/>
	</linearGradient>
	<path class="st1" d="M24.15,44.85h-2.3C9.78,44.85,0,35.07,0,23v0C0,10.93,9.78,1.15,21.85,1.15h2.3C36.22,1.15,46,10.93,46,23v0
		C46,35.07,36.22,44.85,24.15,44.85z"/>
	<g>
		<path class="st2" d="M11.96,19.6v-5.21c0-1.65,0.79-2.43,2.4-2.43h5.3c1.59,0,2.38,0.78,2.38,2.43v5.21
			c0,1.64-0.79,2.43-2.38,2.43h-5.3C12.75,22.04,11.96,21.24,11.96,19.6z M11.96,31.61V26.4c0-1.65,0.79-2.43,2.4-2.43h5.3
			c1.59,0,2.38,0.78,2.38,2.43v5.21c0,1.64-0.79,2.43-2.38,2.43h-5.3C12.75,34.04,11.96,33.25,11.96,31.61z M19.63,20.24
			c0.42,0,0.62-0.21,0.62-0.64v-5.22c0-0.43-0.2-0.63-0.62-0.63h-5.26c-0.42,0-0.62,0.2-0.62,0.63v5.22c0,0.43,0.2,0.64,0.62,0.64
			H19.63z M19.63,32.25c0.42,0,0.62-0.21,0.62-0.64V26.4c0-0.44-0.2-0.64-0.62-0.64h-5.26c-0.42,0-0.62,0.2-0.62,0.64v5.21
			c0,0.43,0.2,0.64,0.62,0.64H19.63z M23.98,19.6v-5.21c0-1.65,0.78-2.43,2.38-2.43h5.3c1.59,0,2.38,0.78,2.38,2.43v5.21
			c0,1.64-0.79,2.43-2.38,2.43h-5.3C24.76,22.04,23.98,21.24,23.98,19.6z M23.98,31.61V26.4c0-1.65,0.78-2.43,2.38-2.43h5.3
			c1.59,0,2.38,0.78,2.38,2.43v5.21c0,1.64-0.79,2.43-2.38,2.43h-5.3C24.76,34.04,23.98,33.25,23.98,31.61z M31.64,20.24
			c0.42,0,0.61-0.21,0.61-0.64v-5.22c0-0.43-0.19-0.63-0.61-0.63h-5.26c-0.43,0-0.63,0.2-0.63,0.63v5.22c0,0.43,0.2,0.64,0.63,0.64
			H31.64z M31.64,32.25c0.42,0,0.61-0.21,0.61-0.64V26.4c0-0.44-0.19-0.64-0.61-0.64h-5.26c-0.43,0-0.63,0.2-0.63,0.64v5.21
			c0,0.43,0.2,0.64,0.63,0.64H31.64z"/>
	</g>
</g>
</svg>
