<?xml version="1.0" encoding="utf-8"?>
<!-- Generator: Adobe Illustrator 23.0.6, SVG Export Plug-In . SVG Version: 6.00 Build 0)  -->
<svg version="1.1" id="Layer_1" xmlns="http://www.w3.org/2000/svg" xmlns:xlink="http://www.w3.org/1999/xlink" x="0px" y="0px"
	 viewBox="0 0 46 46" style="enable-background:new 0 0 46 46;" xml:space="preserve">
<style type="text/css">
	.st0{fill:#736357;}
	.st1{opacity:0.4;fill:url(#SVGID_1_);}
	.st2{fill:#FFFFFF;}
</style>
<g>
	<path class="st0" d="M24.19,44.85h-2.38C9.76,44.85,0,35.09,0,23.04l0-0.08C0,10.91,9.76,1.15,21.81,1.15h2.38
		C36.24,1.15,46,10.91,46,22.96v0.08C46,35.09,36.24,44.85,24.19,44.85z"/>
	<linearGradient id="SVGID_1_" gradientUnits="userSpaceOnUse" x1="3.1988" y1="11.5678" x2="42.8012" y2="34.4322">
		<stop  offset="0" style="stop-color:#FFFFFF"/>
		<stop  offset="1" style="stop-color:#000000"/>
	</linearGradient>
	<path class="st1" d="M24.19,44.85h-2.38C9.76,44.85,0,35.09,0,23.04l0-0.08C0,10.91,9.76,1.15,21.81,1.15h2.38
		C36.24,1.15,46,10.91,46,22.96v0.08C46,35.09,36.24,44.85,24.19,44.85z"/>
	<g>
		<path class="st2" d="M36.8,23c0,4.19-3.4,7.59-7.59,7.59c-2.02,0-3.85-0.78-5.21-2.07h-2c-1.36,1.29-3.19,2.07-5.21,2.07
			c-4.19,0-7.59-3.4-7.59-7.59s3.4-7.59,7.59-7.59h12.42C33.4,15.41,36.8,18.81,36.8,23z M16.79,17.48c-3.05,0-5.52,2.47-5.52,5.52
			c0,3.05,2.47,5.52,5.52,5.52c2.42,0,3.71-1.44,4.39-2.07h3.65c0.7,0.66,1.98,2.07,4.39,2.07c3.05,0,5.52-2.47,5.52-5.52
			c0-3.05-2.47-5.52-5.52-5.52H16.79z M20.24,23.69c0,0.19-0.16,0.34-0.34,0.34h-2.07v2.07c0,0.19-0.16,0.35-0.35,0.35H16.1
			c-0.19,0-0.35-0.16-0.35-0.35v-2.07h-2.07c-0.19,0-0.35-0.16-0.35-0.34v-1.38c0-0.19,0.16-0.34,0.35-0.34h2.07V19.9
			c0-0.19,0.16-0.35,0.35-0.35h1.38c0.19,0,0.35,0.16,0.35,0.35v2.07h2.07c0.19,0,0.34,0.16,0.34,0.34V23.69z M29.56,24.73
			c0,0.95-0.77,1.73-1.73,1.73s-1.73-0.77-1.73-1.73c0-0.95,0.77-1.73,1.73-1.73S29.56,23.77,29.56,24.73z M32.31,21.27
			c0,0.95-0.77,1.73-1.72,1.73s-1.73-0.77-1.73-1.73c0-0.95,0.77-1.73,1.73-1.73S32.31,20.32,32.31,21.27z"/>
	</g>
</g>
</svg>
