<?xml version="1.0" encoding="utf-8"?>
<!-- Generator: Adobe Illustrator 23.0.6, SVG Export Plug-In . SVG Version: 6.00 Build 0)  -->
<svg version="1.1" id="Layer_1" xmlns="http://www.w3.org/2000/svg" xmlns:xlink="http://www.w3.org/1999/xlink" x="0px" y="0px"
	 viewBox="0 0 400 400" style="enable-background:new 0 0 400 400;" xml:space="preserve">
<style type="text/css">
	.st0{fill:#006B99;}
	.st1{fill:#D09B2C;}
</style>
<g>
	<g>
		<path class="st0" d="M315,400H85c-46.94,0-85-38.06-85-85V85C0,38.06,38.06,0,85,0h230c46.94,0,85,38.06,85,85v230
			C400,361.94,361.94,400,315,400z"/>
	</g>
	<g>
		<path class="st1" d="M199.98,269.62c-2.5,1.35-20.48,16.63-56.28,16.63c-30.15,0-62.34-15.34-72.42-15.05
			c-3.55-0.14-6.43,0.57-8.66,1.56c-4.2,1.75-6.96-1.04-6.59-3.41c0.39-2.38,3.84-6.82,6.35-10.01c3.06-3.97,7.86-8.35,12.97-11.83
			c14.29-9.75,27.53-9.95,33.39-8.92c0.9,0.16,3.46,0.27,7.5,4.23c9.75,9.35,27.31,21.11,40.82,23.54c1.43,0.16,7.56,0.76,7.66-0.98
			c0.06-1.04-1.64-1.45-2.22-1.57c-21.71-4.91-34.23-15.51-46.17-26.42c-9.72-8.85-17.13-19.84-22.7-30.57
			c-4.4-8.52-10.58-25.37-21.81-31.01c-2.51-1.22-2.58-5.8,2.66-7.02c3.65-0.89,25.79-2.96,52.18,11.28
			c10.38,5.64,13.73,11.89,14.12,13.44c0,0,0.61,0.35,0.77,3.05c1.4,38,18.13,50.76,26.21,56.62c3.27,2.54,7.37,3.63,8.5,2.49
			c0.49-0.56-0.83-1.75-1.71-2.32c-23.32-15.36-27.83-35.39-29.09-56.87c-1.22-21.37,7.78-39.94,13.49-55.11
			c0.81-2.16,4.11-11.91,1.62-20.2c-1.66-5.63,0.1-6.94,3.19-7.41c3.14-0.46,7.9,6,9.56,8c1.27,1.52,5.48,6.41,11.78,18.94
			c12.46,24.73,12.56,52.09,12.55,55.23c-0.22,17.81-3.51,18.9-11.98,23.02c-7.06,2.76-11.03,8.42-11.03,13.94
			c0,5.63,4.2,9.79,11.84,13.05c0.51,0.15,1.41,0.43,1.8,0.52c3.36,0.83,6.18,0.07,6.18-1.2c0-1.14-3.33-1.56-3.33-1.56
			c-7.46-1.84-12.64-6.05-12.64-10.84c0-6.52,9.16-13.14,20.88-13.14h0.59l0.65-0.01c11.67,0,20.82,6.59,20.82,13.14
			c0,4.8-5.16,9-12.61,10.84c0,0-3.32,0.43-3.32,1.56c0.03,1.28,2.78,2.03,6.16,1.21c0.42-0.09,1.28-0.37,1.84-0.54
			c7.64-3.25,11.8-7.43,11.8-13.05c0-5.51-3.93-11.15-11.02-13.92c-8.48-4.12-11.71-5.24-11.98-23.03
			c-0.03-3.13,0.11-30.5,12.51-55.22c6.32-12.54,10.51-17.43,11.82-18.94c1.64-2.01,6.4-8.46,9.58-8.02
			c3.12,0.48,4.82,1.79,3.16,7.4c-2.48,8.31,0.8,18.06,1.63,20.21c5.65,15.18,14.71,33.74,13.47,55.11
			c-1.23,21.48-5.74,41.51-29.07,56.86c-0.93,0.59-2.17,1.77-1.67,2.35c1.07,1.14,5.18,0.04,8.45-2.49
			c8.08-5.86,24.79-18.62,26.2-56.64c0.19-2.68,0.83-3.06,0.83-3.06c0.38-1.53,3.69-7.79,14.06-13.41
			c26.44-14.27,48.56-12.17,52.21-11.3c5.24,1.23,5.15,5.82,2.67,7.01c-11.26,5.67-17.42,22.5-21.82,31.01
			c-5.54,10.75-12.98,21.75-22.69,30.6c-11.95,10.91-24.49,21.49-46.2,26.42c-0.55,0.12-2.28,0.51-2.21,1.57
			c0.07,1.73,6.21,1.12,7.69,0.97c13.47-2.42,31-14.2,40.81-23.54c4.06-3.95,6.59-4.06,7.52-4.24c5.8-1.02,19.05-0.82,33.36,8.93
			c5.14,3.44,9.94,7.85,12.93,11.81c2.52,3.22,5.98,7.65,6.38,10.03c0.36,2.37-2.38,5.14-6.6,3.39c-2.23-0.97-5.09-1.69-8.65-1.55
			c-10.1-0.3-42.28,15.06-72.44,15.04C220.51,286.23,202.53,270.97,199.98,269.62z"/>
	</g>
</g>
</svg>
